<svg class="main-svg" xmlns="http://www.w3.org/2000/svg" xmlns:xlink="http://www.w3.org/1999/xlink" width="600" height="600" style="" viewBox="0 0 600 600"><rect x="0" y="0" width="600" height="600" style="fill: rgb(255, 255, 255); fill-opacity: 1;"/><defs id="defs-bdacc0"><g class="clips"><clipPath id="clipbdacc0xyplot" class="plotclip"><rect width="436" height="420"/></clipPath><clipPath class="axesclip" id="clipbdacc0x"><rect x="84" y="0" width="436" height="600"/></clipPath><clipPath class="axesclip" id="clipbdacc0y"><rect x="0" y="100" width="600" height="420"/></clipPath><clipPath class="axesclip" id="clipbdacc0xy"><rect x="84" y="100" width="436" height="420"/></clipPath></g><g class="gradients"/><g class="patterns"/></defs><g class="bglayer"><rect class="bg" x="84" y="100" width="436" height="420" style="fill: rgb(0, 0, 0); fill-opacity: 0; stroke-width: 0;"/></g><g class="layer-below"><g class="imagelayer"/><g class="shapelayer"/></g><g class="cartesianlayer"><g class="subplot xy"><g class="layer-subplot"><g class="shapelayer"/><g class="imagelayer"/></g><g class="minor-gridlayer"><g class="x"/><g class="y"/></g><g class="gridlayer"><g class="x"><path class="xgrid crisp" transform="translate(206.01,0)" d="M0,100v420" style="stroke: rgb(255, 255, 255); stroke-opacity: 1; stroke-width: 1px;"/><path class="xgrid crisp" transform="translate(328.03,0)" d="M0,100v420" style="stroke: rgb(255, 255, 255); stroke-opacity: 1; stroke-width: 1px;"/><path class="xgrid crisp" transform="translate(450.04,0)" d="M0,100v420" style="stroke: rgb(255, 255, 255); stroke-opacity: 1; stroke-width: 1px;"/></g><g class="y"><path class="ygrid crisp" transform="translate(0,455.23)" d="M84,0h436" style="stroke: rgb(255, 255, 255); stroke-opacity: 1; stroke-width: 1px;"/><path class="ygrid crisp" transform="translate(0,350.25)" d="M84,0h436" style="stroke: rgb(255, 255, 255); stroke-opacity: 1; stroke-width: 1px;"/><path class="ygrid crisp" transform="translate(0,245.28)" d="M84,0h436" style="stroke: rgb(255, 255, 255); stroke-opacity: 1; stroke-width: 1px;"/><path class="ygrid crisp" transform="translate(0,140.3)" d="M84,0h436" style="stroke: rgb(255, 255, 255); stroke-opacity: 1; stroke-width: 1px;"/></g></g><g class="zerolinelayer"/><g class="layer-between"><g class="shapelayer"/><g class="imagelayer"/></g><path class="xlines-below"/><path class="ylines-below"/><g class="overlines-below"/><g class="xaxislayer-below"/><g class="yaxislayer-below"/><g class="overaxes-below"/><g class="plot" transform="translate(84,100)" clip-path="url(#clipbdacc0xyplot)"><g class="scatterlayer mlayer"><g class="trace scatter tracecf1ee7" style="stroke-miterlimit: 2; opacity: 1;"><g class="fills"/><g class="errorbars"/><g class="lines"><path class="js-line" d="M2.64,106.76L3.25,90.5L3.86,91.77L4.07,94.25L4.27,99.24L4.68,98L4.88,84.33L5.29,95.55L5.49,90.62L5.69,85.63L7.52,114.31L7.73,126.71L8.13,122.97L8.34,137.87L8.74,145.35L8.95,137.87L9.15,130.43L9.56,130.43L9.76,124.21L10.37,109.27L10.78,114.28L10.98,116.78L11.18,109.3L11.79,106.79L12.2,114.25L13.01,101.83L13.22,104.31L14.44,74.37L14.64,78.12L15.05,78.12L15.25,80.58L15.66,81.82L15.86,89.29L16.68,79.37L17.08,86.84L18.71,54.52L19.12,55.73L19.32,55.73L19.73,50.79L19.93,49.55L20.13,63.25L20.54,68.25L20.74,64.55L21.15,79.48L21.56,81.96L21.96,91.95L22.17,103.13L22.78,99.41L23.18,96.91L24,83.12L24.2,84.39L24.61,83.15L24.81,84.39L25.01,74.4L25.42,86.81L25.62,78.12L26.03,78.12L26.23,79.37L26.64,74.43L28.06,85.66L28.27,79.42L28.47,90.62L29.08,88.14L29.49,95.55L30.3,75.7L30.5,80.69L30.91,74.46L31.11,80.69L31.52,73.19L31.72,68.25L31.93,65.74L32.33,69.49L32.54,74.43L32.94,75.67L33.15,74.43L33.55,61.98L34.37,48.33L34.57,57.01L35.18,60.76L35.38,58.31L35.79,58.31L35.99,55.79L36.4,64.49L37.21,76.85L37.42,73.13L37.82,65.68L38.03,63.19L38.43,68.13L38.64,69.35L38.84,63.16L39.25,55.68L39.86,56.92L40.06,63.16L40.47,65.65L40.67,75.58L41.49,65.74L41.89,66.98L42.71,76.97L42.91,67.04L43.32,72.03L43.52,67.04L43.93,67.04L44.13,67.04L44.33,76.91L45.35,83.09L45.55,78.1L45.96,84.27L46.16,68.16L46.98,58.22L47.38,59.46L47.59,64.46L48.2,63.22L48.4,60.71L48.81,56.98L49.01,65.62L50.23,70.59L50.43,61.86L50.84,59.38L51.04,51.95L51.45,53.19L51.65,50.73L51.86,45.79L52.26,49.52L52.47,59.46L53.08,42.08L53.28,48.33L53.69,52.06L53.89,58.25L54.5,54.52L54.91,57.01L55.11,57.01L55.31,48.27L55.92,63.16L56.33,58.16L56.53,51.98L56.74,53.22L57.14,65.68L57.96,47.15L58.36,50.88L59.18,42.17L59.38,45.87L59.79,43.38L59.99,29.66L60.8,45.79L61.21,48.3L62.84,78.21L63.24,69.52L63.45,74.46L63.65,71.97L64.06,68.22L64.26,75.67L64.67,57.09L64.87,59.61L65.28,55.91L65.48,45.96L65.68,33.49L66.29,37.22L66.7,32.3L67.11,28.53L67.51,33.46L67.72,34.7L68.13,32.21L68.33,35.92L68.74,33.43L68.94,25.98L69.14,24.74L69.55,34.61L69.75,32.15L70.16,33.43L70.36,39.62L71.18,30.91L71.58,34.61L72.19,42.05L72.4,35.86L72.6,42.05L73.01,34.59L73.21,34.59L73.62,32.1L73.82,38.35L74.02,55.82L74.63,52.12L75.04,47.17L75.24,58.37L75.85,55.88L76.06,53.42L76.46,65.85L76.67,57.15L77.07,39.68L77.68,35.98L77.89,42.14L78.7,27.26L79.11,30.97L79.31,21L79.51,27.2L79.92,37.16L81.14,54.52L81.34,52.03L82.16,59.41L82.56,54.46L82.77,53.19L82.97,55.68L83.38,61.86L83.58,58.16L83.99,59.44L84.19,64.43L85,70.62L85.41,68.13L86.43,50.79L86.83,52.03L87.04,49.52L87.44,57.01L87.65,57.01L88.05,62.01L89.07,84.36L89.48,84.36L91.71,54.49L91.92,69.46L92.32,71.92L92.53,79.42L93.14,69.52L93.34,80.75L93.95,91.92L94.36,83.2L94.56,83.2L94.97,78.18L95.99,96.82L96.39,91.83L97.41,106.7L97.82,94.31L98.83,83.06L99.24,88.05L99.44,79.31L100.05,81.82L100.26,88.08L102.09,105.52L102.29,101.83L103.51,96.88L103.92,103.1L104.12,95.61L104.32,100.59L104.73,101.83L105.54,88.08L105.75,90.56L106.36,91.8L106.76,84.3L106.97,94.28L108.19,104.28L108.39,115.46L108.8,114.22L109,106.79L111.24,59.46L111.64,61.95L112.46,71.92L112.86,74.4L113.88,102.99L114.29,99.24L115.3,115.43L115.71,107.97L116.73,91.74L117.13,103.02L117.74,93.04L117.95,94.28L118.15,98.03L119.17,112.98L119.37,110.51L119.78,110.51L120.59,98L120.79,99.27L121.2,93.01L121.61,94.28L122.01,95.52L123.44,125.48L123.64,126.71L124.66,136.72L124.86,137.96L125.07,139.23L125.47,131.72L125.68,129.22L126.08,135.49L126.69,152.93L126.9,144.2L127.1,147.93L128.32,162.87L128.52,159.13L128.93,157.87L129.13,159.13L129.54,147.9L130.56,167.92L130.96,172.91L131.57,182.88L131.98,179.16L132.39,182.88L135.03,139.14L135.23,140.37L135.44,145.43L135.84,140.43L136.05,154.19L137.47,159.16L137.88,157.93L138.08,162.92L138.49,155.37L138.69,155.37L139.1,154.11L139.3,157.87L140.72,189.13L140.93,184.15L142.15,192.91L142.55,191.65L142.96,196.66L143.37,202.93L143.57,194.2L143.98,199.18L144.18,200.44L144.38,204.19L144.79,196.66L144.99,196.66L145.4,191.65L145.6,195.4L146.01,189.13L146.21,181.6L147.43,189.05L147.64,187.79L148.45,201.59L148.86,201.59L149.47,206.6L149.67,197.87L149.88,192.86L150.28,197.9L150.49,199.16L151.3,191.65L151.71,200.44L152.93,219.21L153.13,209.2L153.33,217.98L153.74,211.72L153.94,201.73L154.55,195.46L154.76,189.16L155.16,192.94L155.37,191.68L155.77,187.93L155.98,191.68L156.38,185.38L156.59,184.15L156.79,190.36L157.4,202.88L157.81,200.39L158.01,197.87L158.21,191.62L158.62,196.61L158.82,201.62L159.23,199.13L159.43,200.36L159.84,207.91L160.25,197.87L160.65,199.13L160.86,204.17L161.87,222.99L162.08,216.78L162.28,216.78L162.69,199.3L164.72,161.63L164.92,166.6L165.33,177.93L166.35,220.56L166.75,231.84L167.77,255.59L168.18,253.08L168.38,249.32L169.19,264.4L169.6,258.13L170.21,273.18L170.82,270.67L171.02,264.43L171.63,260.64L171.84,263.15L172.24,246.83L172.45,246.83L172.65,245.58L173.67,225.53L173.87,229.27L174.28,228.02L174.48,219.21L174.68,216.7L175.09,222.96L175.29,222.96L175.7,226.73L176.11,224.19L177.33,239.21L177.74,237.96L178.55,244.24L178.75,241.75L179.16,239.24L179.36,237.98L179.57,244.27L180.18,249.29L180.58,248.03L180.79,245.52L181.19,248.03L181.4,246.78L181.6,259.3L183.02,276.88L183.43,278.13L183.63,283.15L184.04,278.13L184.24,274.37L184.85,276.91L185.06,275.66L185.46,271.9L186.48,248.06L186.89,256.85L188.11,224.19L188.51,226.7L188.92,224.19L189.12,225.44L189.53,235.47L190.34,222.93L190.55,231.73L193.19,285.68L193.39,279.42L193.8,279.42L194.61,271.9L195.02,265.6L195.22,264.35L195.43,275.66L195.83,276.91L196.04,266.88L196.65,249.4L197.05,251.91L197.26,260.72L198.68,235.59L198.88,245.64L199.9,255.59L200.1,245.52L200.71,256.79L200.92,253.02L201.32,251.77L201.93,249.26L202.34,259.3L202.75,258.04L202.95,258.04L203.36,261.81L203.56,261.81L203.97,268.08L204.17,278.16L204.78,274.4L204.99,276.91L206.82,248.09L207.02,236.73L207.43,232.96L207.63,239.24L207.83,224.21L208.44,234.24L208.85,234.24L210.48,263.15L210.88,268.11L211.7,281.92L211.9,280.67L212.31,268.16L212.51,274.46L212.71,270.7L213.12,261.89L213.32,258.13L213.73,270.7L214.75,255.62L215.15,260.61L215.97,253.05L216.17,251.8L216.78,234.21L217.19,240.5L217.39,234.24L217.8,243.07L218,243.07L218.81,250.6L219.22,246.83L219.42,241.81L219.63,248.06L220.03,251.83L220.24,261.84L220.64,251.77L220.85,256.79L221.25,260.55L222.07,276.91L222.27,291.97L222.88,284.45L223.29,288.24L223.49,286.99L223.69,284.48L224.1,287.02L224.3,290.8L224.71,293.3L224.91,280.73L225.32,280.73L225.52,283.23L225.73,283.23L226.13,275.68L226.74,283.2L226.95,280.67L227.15,273.12L227.76,289.46L228.17,279.42L229.79,307.09L230.2,309.6L230.61,303.29L231.01,307.04L231.22,307.04L231.63,307.04L231.83,304.54L232.24,309.54L232.44,305.76L232.64,301.98L233.25,307.01L233.66,304.51L234.07,314.57L234.47,305.79L235.29,317.09L235.69,318.34L236.1,303.31L236.51,308.34L236.71,309.6L237.12,303.31L237.32,307.07L237.52,309.57L237.93,302.03L238.54,304.54L238.74,305.79L239.15,308.29L239.35,302.01L239.56,302.01L239.96,312.07L240.17,319.62L240.57,307.09L240.78,314.62L240.98,304.56L241.39,304.56L241.59,307.07L242.61,322.12L242.81,312.07L243.01,299.5L243.62,303.26L244.03,308.29L245.45,278.16L245.66,285.71L246.06,285.71L246.27,290.74L247.08,283.2L247.49,293.28L247.69,293.28L247.89,305.84L248.5,302.09L248.91,307.09L249.11,302.06L249.52,312.1L250.54,325.84L250.94,315.79L251.96,353.6L252.37,358.67L253.18,343.63L253.38,352.47L253.79,354.96L253.99,338.61L254.4,339.85L254.6,331.03L255.01,332.28L255.21,324.7L256.03,341.02L256.43,330.92L256.64,330.92L256.84,340.96L257.25,340.96L257.45,338.46L258.67,325.87L258.88,336L259.28,339.77L259.49,349.86L259.89,343.57L260.1,346.09L260.3,357.4L261.93,338.46L262.13,344.79L262.74,338.49L262.94,344.84L263.35,334.78L263.76,338.55L264.16,349.89L264.37,348.64L264.77,341.13L265.79,318.43L266.2,331.06L267.21,318.46L267.62,322.21L268.23,337.27L268.43,328.42L268.84,335.94L269.86,318.29L270.26,320.81L271.08,330.95L271.28,332.22L271.69,332.22L271.89,336L272.5,333.47L272.7,344.76L273.11,343.48L273.31,332.17L273.72,338.46L273.92,333.39L274.33,335.88L274.53,335.88L274.74,338.41L275.14,337.16L275.35,340.9L275.75,335.88L275.96,342.18L276.16,349.69L277.18,339.66L277.38,342.18L277.79,339.66L277.99,347.2L278.19,350.97L278.6,347.2L278.8,340.9L279.21,333.39L279.62,337.13L289.79,339.63L291.01,317.04L291.21,328.39L291.62,332.17L291.82,344.76L292.02,347.28L292.43,342.26L293.24,369.97L293.45,363.71L293.85,361.19L294.46,366.26L294.67,361.19L295.07,358.67L295.28,364.96L296.09,352.35L296.5,367.45L296.7,376.28L296.9,369.94L297.31,362.44L297.51,362.44L297.92,363.71L298.53,352.35L298.73,354.88L298.94,368.75L299.95,363.68L300.16,368.69L300.77,361.16L300.97,366.17L301.38,375.03L301.58,378.82L301.99,369.97L302.19,371.24L302.39,364.93L302.8,361.16L303,364.93L303.41,367.45L303.82,378.79L304.22,369.94L304.43,369.94L304.83,385.18L305.04,380.12L305.44,386.43L305.65,392.7L305.85,390.19L306.26,393.94L306.46,399L307.07,391.46L307.27,383.88L307.68,371.15L308.29,373.7L308.49,380.04L309.71,376.28L309.92,383.83L310.73,395.22L311.14,382.64L312.36,377.58L312.56,370.05L312.76,375.12L313.17,373.84L313.38,371.35L313.78,363.77L313.99,375.09L314.19,366.23L314.6,367.48L314.8,376.33L315.21,373.79L315.41,378.79L316.02,359.89L316.22,367.45L316.63,371.24L316.83,367.45L317.24,372.51L317.44,373.76L318.05,354.88L318.26,370.08L318.87,377.58L319.27,373.79L319.48,368.72L319.88,369.97L320.09,373.76L320.7,367.5L320.9,373.76L322.12,356.07L322.32,354.82L323.75,320.87L324.15,319.59L324.36,319.59L324.76,312.01L325.17,301.95L325.58,306.98L325.78,304.48L326.19,304.48L326.39,306.98L326.8,309.48L327,296.94L327.2,288.18L327.81,291.97L328.22,288.21L329.24,271.87L329.64,273.12L330.25,290.69L330.46,285.65L330.66,279.39L331.07,279.39L331.27,285.65L331.68,283.15L331.88,286.9L332.49,299.48L332.69,294.44L333.1,290.69L333.91,298.2L334.12,295.69L334.73,290.69L335.13,274.35L336.15,250.51L336.56,254.31L337.17,250.54L337.37,255.56L338.59,283.23L338.79,280.73L339.2,288.24L339.61,275.68L340.01,283.23L340.22,281.98L341.44,274.37L341.64,284.4L342.05,275.63L342.25,276.88L342.66,284.4L344.29,250.57L344.69,246.81L346.32,225.44L346.52,234.21L346.93,236.73L347.13,245.52L347.54,244.27L347.74,250.51L348.15,248L348.35,253.02L348.56,255.53L348.96,253.02L349.17,249.26L349.78,245.49L349.98,237.96L350.59,232.93L351,239.21L351.81,219.18L352.01,225.47L352.42,227.99L352.62,225.5L353.03,230.53L353.44,231.79L353.84,228.02L354.66,234.24L355.06,231.73L355.88,217.93L356.08,219.18L356.69,222.96L356.89,224.21L357.3,227.96L357.5,222.96L357.91,220.44L358.52,224.19L358.72,221.67L358.93,220.41L359.54,220.41L359.94,221.67L360.15,221.67L360.35,230.44L360.76,234.21L360.96,224.3L361.37,228.04L361.57,220.53L362.18,216.78L362.38,208L362.79,210.52L362.99,203.02L363.6,196.72L364.01,211.69L364.42,225.5L364.82,238.04L365.43,249.32L365.64,259.38L366.25,274.37L366.45,270.64L366.86,263.15L369.1,217.93L369.3,229.22L371.13,264.35L371.33,261.84L371.94,279.42L372.55,278.16L372.76,269.36L373.37,265.6L373.77,269.36L374.38,270.64L374.79,255.56L375.2,253.05L375.4,241.81L375.81,254.45L376.01,254.45L377.43,289.63L377.84,285.88L378.25,308.37L378.65,297.03L378.86,295.78L379.26,297.03L379.47,280.67L381.7,234.19L382.11,227.93L382.31,227.93L382.72,230.44L382.92,229.22L383.13,238.04L383.53,233.04L383.74,244.35L384.35,258.19L384.75,250.66L385.77,258.13L386.18,243.04L386.38,244.27L386.79,234.21L386.99,215.35L387.6,226.67L387.8,230.44L388.41,227.93L388.62,239.24L389.84,263.09L390.24,256.85L390.45,256.85L390.65,260.61L391.06,261.87L391.26,255.59L392.07,245.55L392.48,260.61L393.09,269.36L393.29,258.1L393.7,255.59L393.9,258.1L394.11,260.61L394.51,260.61L394.72,251.86L395.13,253.11L395.33,239.27L397.97,197.9L398.18,207.97L398.58,204.19L398.79,212.98L398.99,217.98L399.4,212.95L399.6,212.95L400.82,261.84L401.02,254.31L401.43,250.57L401.63,246.81L402.04,249.32L402.24,254.34L402.45,265.6L402.85,253.08L403.06,241.78L404.48,212.92L404.89,209.14L406.92,174.14L407.12,176.64L407.53,181.65L407.73,174.17L408.34,157.96L408.55,160.45L408.95,172.91L409.16,171.65L409.56,174.14L409.77,175.4L409.97,160.48L411.39,130.51L411.8,129.25L412,127.98L412.41,130.48L412.61,129.22L413.02,139.17L414.04,156.58L414.44,155.34L414.85,152.85L415.26,141.61L416.07,132.9L416.48,130.4L416.68,132.9L416.88,127.89L417.29,131.63L417.49,132.9L417.9,129.16L418.1,130.43L418.31,141.67L418.71,150.46L418.92,147.96L419.32,141.75L419.93,145.52L420.14,144.28L420.34,136.81L420.75,135.57L420.95,136.81L421.36,125.56L421.76,104.31L422.17,118.05L422.38,109.3L422.78,100.62L422.99,105.61L423.39,105.61L424.41,128.04L424.82,131.78L425.02,121.79L425.22,123.03L425.63,131.69L425.83,129.19L426.24,132.93L426.44,132.93L427.66,120.47L427.87,120.47L428.27,121.71L428.48,120.47L428.68,119.23L429.09,117.97L429.29,114.19L430.71,135.4L431.12,129.19L432.75,117.97L433.15,114.22L433.76,109.24L433.97,117.97L434.78,131.69L435.19,129.19L435.8,134.16L436,127.92" style="vector-effect: none; fill: none; stroke: rgb(99, 110, 250); stroke-opacity: 1; stroke-width: 2px; opacity: 1;"/></g><g class="points"/><g class="text"/></g></g></g><g class="overplot"/><path class="xlines-above crisp" d="M83,520.5H521M83,99.5H521" style="fill: none; stroke-width: 1px; stroke: rgb(0, 0, 0); stroke-opacity: 1;"/><path class="ylines-above crisp" d="M83.5,100V520M520.5,100V520" style="fill: none; stroke-width: 1px; stroke: rgb(0, 0, 0); stroke-opacity: 1;"/><g class="overlines-above"/><g class="xaxislayer-above"><g class="xtick"><text text-anchor="middle" x="0" y="535.4" transform="translate(84,0)" style="font-family: 'Open Sans', verdana, arial, sans-serif; font-size: 12px; fill: rgb(42, 63, 95); fill-opacity: 1; white-space: pre; opacity: 1;">0</text></g><g class="xtick"><text text-anchor="middle" x="0" y="535.4" style="font-family: 'Open Sans', verdana, arial, sans-serif; font-size: 12px; fill: rgb(42, 63, 95); fill-opacity: 1; white-space: pre; opacity: 1;" transform="translate(206.01,0)">10</text></g><g class="xtick"><text text-anchor="middle" x="0" y="535.4" style="font-family: 'Open Sans', verdana, arial, sans-serif; font-size: 12px; fill: rgb(42, 63, 95); fill-opacity: 1; white-space: pre; opacity: 1;" transform="translate(328.03,0)">20</text></g><g class="xtick"><text text-anchor="middle" x="0" y="535.4" style="font-family: 'Open Sans', verdana, arial, sans-serif; font-size: 12px; fill: rgb(42, 63, 95); fill-opacity: 1; white-space: pre; opacity: 1;" transform="translate(450.04,0)">30</text></g></g><g class="yaxislayer-above"><g class="ytick"><text text-anchor="end" x="80.6" y="4.199999999999999" transform="translate(0,455.23)" style="font-family: 'Open Sans', verdana, arial, sans-serif; font-size: 12px; fill: rgb(42, 63, 95); fill-opacity: 1; white-space: pre; opacity: 1;">0.09075</text></g><g class="ytick"><text text-anchor="end" x="80.6" y="4.199999999999999" style="font-family: 'Open Sans', verdana, arial, sans-serif; font-size: 12px; fill: rgb(42, 63, 95); fill-opacity: 1; white-space: pre; opacity: 1;" transform="translate(0,350.25)">0.0908</text></g><g class="ytick"><text text-anchor="end" x="80.6" y="4.199999999999999" style="font-family: 'Open Sans', verdana, arial, sans-serif; font-size: 12px; fill: rgb(42, 63, 95); fill-opacity: 1; white-space: pre; opacity: 1;" transform="translate(0,245.28)">0.09085</text></g><g class="ytick"><text text-anchor="end" x="80.6" y="4.199999999999999" style="font-family: 'Open Sans', verdana, arial, sans-serif; font-size: 12px; fill: rgb(42, 63, 95); fill-opacity: 1; white-space: pre; opacity: 1;" transform="translate(0,140.3)">0.0909</text></g></g><g class="overaxes-above"/></g></g><g class="polarlayer"/><g class="smithlayer"/><g class="ternarylayer"/><g class="geolayer"/><g class="funnelarealayer"/><g class="pielayer"/><g class="iciclelayer"/><g class="treemaplayer"/><g class="sunburstlayer"/><g class="glimages"/><defs id="topdefs-bdacc0"><g class="clips"/></defs><g class="layer-above"><g class="imagelayer"/><g class="shapelayer"/></g><g class="infolayer"><g class="g-gtitle"><text class="gtitle" x="30" y="50" text-anchor="start" dy="0em" style="font-family: 'Open Sans', verdana, arial, sans-serif; font-size: 17px; fill: rgb(42, 63, 95); opacity: 1; white-space: pre;">Raw BME680 Sensor Data, baseline</text></g><g class="g-xtitle"><text class="xtitle" x="302" y="562.70625" text-anchor="middle" style="font-family: 'Open Sans', verdana, arial, sans-serif; font-size: 14px; fill: rgb(42, 63, 95); opacity: 1; white-space: pre;">Time (min)</text></g><g class="g-ytitle"><text class="ytitle" transform="rotate(-90,17.818749999999994,310)" x="17.818749999999994" y="310" text-anchor="middle" style="font-family: 'Open Sans', verdana, arial, sans-serif; font-size: 14px; fill: rgb(42, 63, 95); opacity: 1; white-space: pre;">1/log[Raw Value]</text></g></g></svg>