<svg class="main-svg" xmlns="http://www.w3.org/2000/svg" xmlns:xlink="http://www.w3.org/1999/xlink" width="600" height="600" style="" viewBox="0 0 600 600"><rect x="0" y="0" width="600" height="600" style="fill: rgb(255, 255, 255); fill-opacity: 1;"/><defs id="defs-d9f529"><g class="clips"><clipPath id="clipd9f529xyplot" class="plotclip"><rect width="436" height="420"/></clipPath><clipPath class="axesclip" id="clipd9f529x"><rect x="84" y="0" width="436" height="600"/></clipPath><clipPath class="axesclip" id="clipd9f529y"><rect x="0" y="100" width="600" height="420"/></clipPath><clipPath class="axesclip" id="clipd9f529xy"><rect x="84" y="100" width="436" height="420"/></clipPath></g><g class="gradients"/><g class="patterns"/></defs><g class="bglayer"><rect class="bg" x="84" y="100" width="436" height="420" style="fill: rgb(0, 0, 0); fill-opacity: 0; stroke-width: 0;"/></g><g class="layer-below"><g class="imagelayer"/><g class="shapelayer"/></g><g class="cartesianlayer"><g class="subplot xy"><g class="layer-subplot"><g class="shapelayer"/><g class="imagelayer"/></g><g class="minor-gridlayer"><g class="x"/><g class="y"/></g><g class="gridlayer"><g class="x"><path class="xgrid crisp" transform="translate(206.01,0)" d="M0,100v420" style="stroke: rgb(255, 255, 255); stroke-opacity: 1; stroke-width: 1px;"/><path class="xgrid crisp" transform="translate(328.03,0)" d="M0,100v420" style="stroke: rgb(255, 255, 255); stroke-opacity: 1; stroke-width: 1px;"/><path class="xgrid crisp" transform="translate(450.04,0)" d="M0,100v420" style="stroke: rgb(255, 255, 255); stroke-opacity: 1; stroke-width: 1px;"/></g><g class="y"><path class="ygrid crisp" transform="translate(0,501.24)" d="M84,0h436" style="stroke: rgb(255, 255, 255); stroke-opacity: 1; stroke-width: 1px;"/><path class="ygrid crisp" transform="translate(0,435.17)" d="M84,0h436" style="stroke: rgb(255, 255, 255); stroke-opacity: 1; stroke-width: 1px;"/><path class="ygrid crisp" transform="translate(0,369.11)" d="M84,0h436" style="stroke: rgb(255, 255, 255); stroke-opacity: 1; stroke-width: 1px;"/><path class="ygrid crisp" transform="translate(0,303.03999999999996)" d="M84,0h436" style="stroke: rgb(255, 255, 255); stroke-opacity: 1; stroke-width: 1px;"/><path class="ygrid crisp" transform="translate(0,236.97)" d="M84,0h436" style="stroke: rgb(255, 255, 255); stroke-opacity: 1; stroke-width: 1px;"/><path class="ygrid crisp" transform="translate(0,170.91)" d="M84,0h436" style="stroke: rgb(255, 255, 255); stroke-opacity: 1; stroke-width: 1px;"/><path class="ygrid crisp" transform="translate(0,104.84)" d="M84,0h436" style="stroke: rgb(255, 255, 255); stroke-opacity: 1; stroke-width: 1px;"/></g></g><g class="zerolinelayer"/><g class="layer-between"><g class="shapelayer"/><g class="imagelayer"/></g><path class="xlines-below"/><path class="ylines-below"/><g class="overlines-below"/><g class="xaxislayer-below"/><g class="yaxislayer-below"/><g class="overaxes-below"/><g class="plot" transform="translate(84,100)" clip-path="url(#clipd9f529xyplot)"><g class="scatterlayer mlayer"><g class="trace scatter trace287b9f" style="stroke-miterlimit: 2; opacity: 1;"><g class="fills"/><g class="errorbars"/><g class="lines"><path class="js-line" d="M2.64,246.99L4.27,197.22L4.68,190.01L6.1,179.85L6.3,184.44L7.32,200.49L7.52,204.1L8.74,215.56L8.95,217.85L10.78,188.7L10.98,188.37L11.18,187.71L11.59,183.45L11.79,183.13L12.2,180.83L13.22,188.04L13.63,188.04L13.83,188.37L14.24,186.08L14.44,186.4L14.64,188.37L15.05,188.7L15.25,185.09L15.66,185.42L15.86,180.83L16.47,177.23L16.68,171.98L17.69,166.08L17.9,171L18.1,173.62L18.51,172.31L18.71,171.66L19.73,173.29L19.93,171.33L20.13,172.31L20.54,168.71L21.15,164.12L21.35,158.87L21.56,160.51L21.96,156.9L22.17,153.95L22.57,157.23L22.78,160.18L23.39,163.79L23.59,160.84L24.81,171L25.01,170.02L25.42,168.05L25.62,167.72L26.03,163.79L26.23,164.44L26.64,162.15L26.84,158.21L27.05,158.54L27.45,161.17L27.66,162.8L28.06,161.82L28.27,159.2L29.08,151.33L29.49,149.03L30.1,150.67L30.3,144.11L30.5,142.15L30.91,147.39L31.11,146.74L31.52,150.35L31.72,150.67L31.93,152.64L32.33,154.94L32.54,153.62L32.94,152.31L33.96,155.92L34.37,157.23L35.18,157.89L35.38,162.15L35.99,163.13L36.4,161.82L36.6,161.17L37.01,163.13L37.21,163.79L37.42,168.05L38.84,162.8L39.25,163.79L40.47,156.25L40.67,157.23L42.5,138.87L42.71,138.87L43.52,127.06L43.93,125.09L44.13,124.43L44.33,125.09L44.74,120.5L45.96,112.62L46.16,112.3L46.37,107.37L46.77,111.97L46.98,111.64L47.38,110.33L47.59,113.61L48.2,120.17L48.4,119.19L48.81,118.86L49.82,108.03L50.23,107.37L51.45,100.15L51.65,101.47L52.26,106.06L52.47,99.82L55.72,77.17L55.92,72.25L56.74,60.1L57.14,65.68L58.57,79.14L58.77,78.16L59.18,81.44L59.38,88.01L59.99,85.38L60.19,82.43L61.21,71.92L61.41,67.98L61.82,74.22L62.23,69.29L62.63,74.55L62.84,72.58L63.24,75.2L63.45,77.83L64.87,106.72L65.28,106.72L65.48,107.7L65.68,112.95L66.7,116.56L66.9,115.58L68.33,126.73L68.74,126.73L68.94,128.04L69.14,134.93L69.55,134.93L69.75,136.24L70.36,132.96L70.57,132.31L71.58,145.43L71.79,142.8L72.19,140.51L73.01,130.34L73.21,131.32L73.62,129.68L75.85,80.79L76.06,74.55L78.09,50.57L78.5,51.23L79.51,44L79.92,41.37L80.53,36.12L80.73,38.75L81.14,40.06L82.16,25.6L82.56,25.27L82.97,21L83.38,24.94L83.99,21L84.19,28.23L84.6,27.57L84.8,28.89L85.41,33.82L85.61,39.07L86.02,40.72L86.22,44.66L86.83,53.53L87.04,52.54L87.44,50.24L88.87,74.22L89.07,74.22L89.68,73.56L89.88,76.85L91.92,93.26L92.32,98.18L93.34,110.98L93.75,109.34L93.95,111.31L94.36,110L94.56,106.06L94.97,104.75L95.17,101.14L95.38,101.47L95.78,99.5L96.39,97.2L96.6,96.21L96.8,93.26L97.21,93.92L97.41,97.2L97.82,96.54L98.02,100.81L98.43,102.12L98.63,105.4L100.66,122.79L100.87,121.48L101.48,126.07L101.88,124.11L102.09,123.78L102.7,121.48L102.9,123.78L103.51,128.7L103.92,125.75L104.73,121.81L104.93,116.56L105.34,117.22L105.54,119.51L106.36,108.36L106.76,111.64L106.97,112.62L107.37,112.3L107.58,113.28L108.19,113.61L108.39,110L109,111.64L109.2,117.22L110.42,126.4L110.83,135.59L112.46,150.67L112.86,151.33L113.27,160.18L113.88,159.2L114.29,158.21L114.49,158.54L114.69,165.75L115.1,171L115.3,165.43L115.71,165.43L116.32,162.8L116.52,165.1L117.13,171.98L117.34,169.03L117.74,167.39L119.37,179.85L119.78,180.83L121.61,193.28L122.01,191.97L122.22,192.63L122.63,191.65L122.83,199.18L123.44,202.79L123.64,199.51L124.05,198.85L124.25,199.18L124.66,203.77L125.47,214.91L125.68,209.34L126.08,208.35L126.29,202.46L127.1,209.01L127.51,208.35L127.71,201.48L128.12,198.53L128.32,199.18L128.52,203.77L128.93,202.46L129.13,209.66L130.15,204.75L130.35,205.73L130.56,208.68L130.96,211.63L131.17,209.01L131.57,205.41L133.2,224.73L133.61,226.04L133.81,226.7L134.01,231.28L134.62,235.21L135.03,230.62L135.23,229.97L135.44,231.28L135.84,226.7L136.05,223.75L136.45,228.33L136.66,228.99L137.47,221.13L137.88,221.46L138.08,222.11L138.49,224.08L138.69,230.3L139.1,232.92L139.3,229.97L139.5,228.99L139.91,227.68L140.11,231.28L140.52,233.9L140.72,233.24L140.93,231.61L142.55,216.22L142.76,221.46L142.96,219.16L143.37,219.82L143.57,222.44L144.18,225.71L144.38,228.99L145.4,244.05L146.01,243.39L146.21,240.77L147.03,251.58L147.43,250.59L147.64,251.25L147.84,249.94L148.25,250.27L148.45,251.58L149.06,252.89L149.47,248.3L150.49,234.55L150.89,234.88L151.1,236.19L151.3,232.92L151.71,231.93L154.55,258.78L154.76,262.7L155.37,261.72L155.77,255.83L156.38,260.09L156.59,257.47L156.79,253.54L157.4,251.58L157.81,247.32L158.01,247.32L158.21,250.59L158.82,254.2L159.23,250.27L159.43,250.27L159.84,256.16L160.25,250.59L160.65,251.9L160.86,254.85L161.47,255.5L161.87,258.78L162.89,272.85L163.3,274.81L164.92,288.55L165.33,288.22L165.53,286.26L165.74,292.15L166.35,302.94L166.96,302.29L167.36,306.21L167.57,305.88L167.77,306.54L168.18,311.12L168.38,314.71L168.99,314.39L169.19,312.1L170.41,321.58L170.82,324.19L172.24,338.57L172.45,334.98L172.65,335.96L173.06,334.98L173.26,333.02L174.48,329.42L174.68,330.4L176.51,354.59L176.72,353.28L177.13,353.28L177.74,357.53L177.94,352.3L178.14,351.64L178.55,347.07L180.18,334.33L180.58,334.98L180.79,334.65L181.19,329.42L181.4,330.4L181.6,330.08L182.01,326.15L182.82,332.36L183.02,326.15L183.43,315.69L184.04,317.65L184.24,315.04L184.85,312.75L185.06,305.88L185.46,305.88L185.67,300.33L186.07,299.34L186.28,301.63L187.09,289.21L187.5,287.57L188.31,282.34L188.51,283.64L188.92,285.28L189.94,286.92L190.34,283.97L190.55,283.97L190.95,280.7L191.97,266.96L192.38,271.54L192.58,271.21L192.99,272.85L193.19,273.18L193.39,269.58L193.8,268.59L194,272.52L194.61,275.47L195.02,277.43L195.22,274.48L195.43,276.77L195.83,279.06L196.04,280.7L196.44,290.19L197.46,308.5L197.87,307.85L198.07,310.79L198.48,306.54L198.68,303.92L200.92,288.55L201.32,292.15L202.34,302.94L202.75,304.58L204.17,324.85L204.38,321.25L204.99,321.58L205.39,317L206.21,324.19L206.41,323.21L206.82,321.25L207.02,321.9L207.43,326.15L207.63,325.17L207.83,329.42L208.24,331.71L208.44,330.08L208.85,330.4L209.87,316.35L210.27,315.69L210.48,315.69L210.88,312.75L211.9,320.92L212.31,323.54L212.71,329.42L213.12,328.12L213.32,326.48L214.75,337.59L215.15,333.67L217.8,311.77L218,316.02L218.2,315.37L218.61,316.02L218.81,318.64L220.24,336.61L220.64,335.31L220.85,332.69L221.25,340.53L221.66,343.8L222.07,340.86L222.27,337.92L222.88,339.23L223.29,341.52L224.1,335.96L224.3,338.9L224.71,336.94L224.91,337.59L225.32,341.84L225.73,342.17L226.13,334.98L226.34,338.57L226.74,339.55L226.95,342.5L227.56,342.17L227.76,341.84L228.17,341.19L228.37,342.17L228.78,338.57L229.59,345.76L229.79,340.53L230.2,340.21L230.4,340.53L230.61,342.5L231.22,341.52L231.63,340.21L232.44,333.35L232.64,334.65L233.05,333.02L233.25,333.02L233.66,334.98L234.07,334.98L234.47,340.86L237.52,361.45L237.93,360.79L238.13,359.81L238.54,362.43L238.74,362.43L239.15,359.16L239.56,361.12L239.96,358.51L240.17,359.81L240.57,359.49L240.78,358.51L240.98,358.83L241.39,361.77L241.59,361.45L242,366.67L243.42,378.1L243.62,381.7L244.03,387.25L244.44,384.31L244.84,383.65L245.45,384.31L245.66,382.02L246.27,383L246.47,380.72L246.88,378.76L247.08,379.41L247.49,380.39L247.89,383.65L248.3,381.7L248.5,382.02L248.91,378.1L249.72,366.02L249.93,367.65L250.33,364.06L250.94,351.97L251.15,353.93L251.55,354.91L251.76,351.97L251.96,355.57L252.37,353.61L252.57,351.32L252.98,346.74L253.18,349.03L253.38,351.97L253.79,351.97L253.99,349.03L254.4,346.09L255.01,346.74L255.21,348.7L255.82,351.32L256.03,349.36L256.43,349.68L256.64,349.68L256.84,353.93L258.06,364.06L258.47,363.41L258.67,362.1L259.49,364.39L259.89,358.18L260.91,345.44L261.32,346.09L261.93,348.38L262.13,347.72L262.33,345.44L264.98,371.57L265.38,373.86L266.4,378.43L266.81,376.14L267.82,369.29L268.23,368.63L269.65,353.28L269.86,351.64L270.26,346.74L270.67,350.34L271.08,349.03L273.11,364.39L273.31,365.37L273.92,366.02L274.33,364.39L275.75,375.49L275.96,375.82L278.6,398.02L278.8,396.06L279.62,399L289.79,395.08L289.99,392.47L290.6,393.12L291.01,397.04L292.43,380.39L292.63,382.35L293.24,378.76L293.45,373.86L293.85,369.61L294.06,374.84L294.46,373.53L296.5,356.22L296.7,355.57L297.31,348.38L297.51,350.99L297.92,349.03L298.53,353.93L298.73,350.01L298.94,350.99L299.34,356.55L299.55,353.28L299.95,355.57L300.16,357.2L301.58,369.61L301.99,368.63L302.19,365.69L302.39,367.98L302.8,365.37L303,365.37L304.43,345.44L304.83,344.13L305.44,346.42L305.65,349.03L307.07,364.71L307.27,365.37L307.68,368.31L307.88,365.04L308.29,361.12L309.1,353.61L309.31,357.85L309.92,362.75L310.32,358.18L311.75,366.67L311.95,370.59L312.36,367L312.76,368.96L313.17,375.82L314.19,372.22L314.6,373.86L314.8,373.53L315.21,375.82L316.02,368.63L316.22,371.9L316.63,373.86L317.85,382.02L318.05,381.7L318.66,383L318.87,387.9L319.48,386.59L319.88,388.23L320.09,388.23L320.29,384.96L320.9,379.74L321.31,380.06L321.51,382.02L321.71,377.78L322.32,378.76L322.73,378.1L322.93,374.84L323.54,377.12L323.75,379.08L324.76,373.53L324.97,375.49L326.39,359.81L326.8,361.12L327,362.1L327.61,367.33L327.81,363.73L329.24,390.51L329.64,389.21L329.85,392.47L330.25,393.78L330.46,390.84L330.66,391.49L331.07,386.27L331.68,381.7L331.88,383.98L332.29,380.72L332.49,382.35L332.69,379.41L333.1,372.55L333.3,372.55L333.71,370.59L335.34,348.7L335.74,341.52L335.95,341.19L336.15,336.61L336.56,338.57L336.76,337.59L337.17,330.08L337.37,334.65L337.98,332.69L338.18,331.71L338.79,325.83L339.2,317L340.63,290.51L340.83,288.22L341.03,282.66L341.44,284.63L341.64,286.59L342.05,286.59L342.25,285.61L344.29,266.3L344.69,259.1L344.9,259.76L345.1,252.23L346.32,236.85L346.52,229.32L348.96,209.99L349.17,212.94L349.57,216.87L349.78,222.44L350.39,222.11L350.59,223.09L351.61,232.26L351.81,235.54L352.62,241.1L353.03,244.38L354.05,252.56L354.45,252.89L355.47,244.7L355.88,246.01L356.08,246.01L356.49,242.74L356.89,243.39L357.3,241.43L357.5,243.39L357.91,239.14L358.11,242.74L358.52,240.12L358.72,238.16L358.93,237.17L359.33,239.46L359.54,240.77L359.94,232.92L361.37,242.74L361.57,239.14L362.38,233.9L362.79,236.85L364.21,211.63L364.42,210.32L365.43,205.08L365.64,207.37L370.52,269.58L370.93,273.83L371.13,273.5L371.33,270.23L371.74,271.21L371.94,275.47L372.35,282.99L372.76,279.06L373.16,278.08L374.38,288.88L374.59,289.86L375.2,284.3L375.4,287.57L375.81,288.55L376.01,287.9L376.21,283.64L376.62,283.97L376.82,281.03L379.47,248.3L379.67,252.89L380.69,254.2L380.89,250.59L382.11,260.09L382.31,267.61L382.72,266.63L382.92,272.85L384.14,282.66L384.35,287.24L384.75,294.11L385.16,293.46L385.57,289.53L385.77,288.55L386.18,292.8L386.38,290.84L386.79,291.17L386.99,295.42L387.6,290.19L387.8,294.11L388.21,295.75L388.41,301.63L389.02,299.67L389.23,300.98L389.63,304.58L390.24,315.37L390.45,310.14L390.65,305.88L392.48,282.01L392.68,270.56L395.13,252.23L395.33,253.87L395.53,257.8L395.94,256.81L396.14,252.23L396.75,247.65L397.16,248.3L397.36,248.96L398.58,257.14L398.79,254.52L399.6,273.83L400.01,276.45L401.43,272.85L401.63,274.81L403.67,252.89L404.07,252.89L404.48,255.5L404.89,254.85L405.09,249.61L405.7,244.05L406.11,246.67L406.31,248.63L406.51,254.52L407.12,251.25L407.53,249.61L408.55,260.74L408.95,259.76L409.16,259.43L409.77,254.85L409.97,246.99L410.38,242.08L410.58,230.62L411.19,214.58L411.39,207.37L413.22,173.29L413.43,176.24L413.83,173.62L414.44,170.67L414.85,171.33L415.26,170.67L415.87,168.71L416.07,174.61L416.68,178.54L416.88,182.47L417.49,184.44L417.9,182.8L418.1,179.85L418.31,180.18L418.71,184.76L423.6,108.03L423.8,107.04L424.21,107.7L424.41,111.97L424.82,107.04L425.02,109.01L425.22,112.62L425.63,110.98L425.83,113.28L426.85,120.17L427.05,118.86L427.26,112.95L427.66,116.56L427.87,113.28L428.27,108.69L428.48,109.01L428.68,103.76L429.09,103.11L429.29,105.4L429.9,110.33L430.31,115.58L430.71,112.95L431.12,117.54L431.73,124.76L431.93,124.43L432.34,118.2L432.54,119.84L432.75,115.58L433.15,115.58L433.97,122.79L434.58,122.47L434.78,127.39L435.8,136.24L436,129.68" style="vector-effect: none; fill: none; stroke: rgb(99, 110, 250); stroke-opacity: 1; stroke-width: 2px; opacity: 1;"/></g><g class="points"/><g class="text"/></g></g></g><g class="overplot"/><path class="xlines-above crisp" d="M83,520.5H521M83,99.5H521" style="fill: none; stroke-width: 1px; stroke: rgb(0, 0, 0); stroke-opacity: 1;"/><path class="ylines-above crisp" d="M83.5,100V520M520.5,100V520" style="fill: none; stroke-width: 1px; stroke: rgb(0, 0, 0); stroke-opacity: 1;"/><g class="overlines-above"/><g class="xaxislayer-above"><g class="xtick"><text text-anchor="middle" x="0" y="535.4" transform="translate(84,0)" style="font-family: 'Open Sans', verdana, arial, sans-serif; font-size: 12px; fill: rgb(42, 63, 95); fill-opacity: 1; white-space: pre; opacity: 1;">0</text></g><g class="xtick"><text text-anchor="middle" x="0" y="535.4" style="font-family: 'Open Sans', verdana, arial, sans-serif; font-size: 12px; fill: rgb(42, 63, 95); fill-opacity: 1; white-space: pre; opacity: 1;" transform="translate(206.01,0)">10</text></g><g class="xtick"><text text-anchor="middle" x="0" y="535.4" style="font-family: 'Open Sans', verdana, arial, sans-serif; font-size: 12px; fill: rgb(42, 63, 95); fill-opacity: 1; white-space: pre; opacity: 1;" transform="translate(328.03,0)">20</text></g><g class="xtick"><text text-anchor="middle" x="0" y="535.4" style="font-family: 'Open Sans', verdana, arial, sans-serif; font-size: 12px; fill: rgb(42, 63, 95); fill-opacity: 1; white-space: pre; opacity: 1;" transform="translate(450.04,0)">30</text></g></g><g class="yaxislayer-above"><g class="ytick"><text text-anchor="end" x="80.6" y="4.199999999999999" transform="translate(0,501.24)" style="font-family: 'Open Sans', verdana, arial, sans-serif; font-size: 12px; fill: rgb(42, 63, 95); fill-opacity: 1; white-space: pre; opacity: 1;">0.10071</text></g><g class="ytick"><text text-anchor="end" x="80.6" y="4.199999999999999" style="font-family: 'Open Sans', verdana, arial, sans-serif; font-size: 12px; fill: rgb(42, 63, 95); fill-opacity: 1; white-space: pre; opacity: 1;" transform="translate(0,435.17)">0.10072</text></g><g class="ytick"><text text-anchor="end" x="80.6" y="4.199999999999999" style="font-family: 'Open Sans', verdana, arial, sans-serif; font-size: 12px; fill: rgb(42, 63, 95); fill-opacity: 1; white-space: pre; opacity: 1;" transform="translate(0,369.11)">0.10073</text></g><g class="ytick"><text text-anchor="end" x="80.6" y="4.199999999999999" style="font-family: 'Open Sans', verdana, arial, sans-serif; font-size: 12px; fill: rgb(42, 63, 95); fill-opacity: 1; white-space: pre; opacity: 1;" transform="translate(0,303.03999999999996)">0.10074</text></g><g class="ytick"><text text-anchor="end" x="80.6" y="4.199999999999999" style="font-family: 'Open Sans', verdana, arial, sans-serif; font-size: 12px; fill: rgb(42, 63, 95); fill-opacity: 1; white-space: pre; opacity: 1;" transform="translate(0,236.97)">0.10075</text></g><g class="ytick"><text text-anchor="end" x="80.6" y="4.199999999999999" style="font-family: 'Open Sans', verdana, arial, sans-serif; font-size: 12px; fill: rgb(42, 63, 95); fill-opacity: 1; white-space: pre; opacity: 1;" transform="translate(0,170.91)">0.10076</text></g><g class="ytick"><text text-anchor="end" x="80.6" y="4.199999999999999" style="font-family: 'Open Sans', verdana, arial, sans-serif; font-size: 12px; fill: rgb(42, 63, 95); fill-opacity: 1; white-space: pre; opacity: 1;" transform="translate(0,104.84)">0.10077</text></g></g><g class="overaxes-above"/></g></g><g class="polarlayer"/><g class="smithlayer"/><g class="ternarylayer"/><g class="geolayer"/><g class="funnelarealayer"/><g class="pielayer"/><g class="iciclelayer"/><g class="treemaplayer"/><g class="sunburstlayer"/><g class="glimages"/><defs id="topdefs-d9f529"><g class="clips"/></defs><g class="layer-above"><g class="imagelayer"/><g class="shapelayer"/></g><g class="infolayer"><g class="g-gtitle"><text class="gtitle" x="30" y="50" text-anchor="start" dy="0em" style="font-family: 'Open Sans', verdana, arial, sans-serif; font-size: 17px; fill: rgb(42, 63, 95); opacity: 1; white-space: pre;">Raw SGP30 Sensor Data, baseline</text></g><g class="g-xtitle"><text class="xtitle" x="302" y="562.70625" text-anchor="middle" style="font-family: 'Open Sans', verdana, arial, sans-serif; font-size: 14px; fill: rgb(42, 63, 95); opacity: 1; white-space: pre;">Time (min)</text></g><g class="g-ytitle"><text class="ytitle" transform="rotate(-90,17.818749999999994,310)" x="17.818749999999994" y="310" text-anchor="middle" style="font-family: 'Open Sans', verdana, arial, sans-serif; font-size: 14px; fill: rgb(42, 63, 95); opacity: 1; white-space: pre;">1/log[Raw Value]</text></g></g></svg>