<svg class="main-svg" xmlns="http://www.w3.org/2000/svg" xmlns:xlink="http://www.w3.org/1999/xlink" width="600" height="600" style="" viewBox="0 0 600 600"><rect x="0" y="0" width="600" height="600" style="fill: rgb(255, 255, 255); fill-opacity: 1;"/><defs id="defs-856d50"><g class="clips"><clipPath id="clip856d50xyplot" class="plotclip"><rect width="436" height="420"/></clipPath><clipPath class="axesclip" id="clip856d50x"><rect x="84" y="0" width="436" height="600"/></clipPath><clipPath class="axesclip" id="clip856d50y"><rect x="0" y="100" width="600" height="420"/></clipPath><clipPath class="axesclip" id="clip856d50xy"><rect x="84" y="100" width="436" height="420"/></clipPath></g><g class="gradients"/><g class="patterns"/></defs><g class="bglayer"><rect class="bg" x="84" y="100" width="436" height="420" style="fill: rgb(0, 0, 0); fill-opacity: 0; stroke-width: 0;"/></g><g class="layer-below"><g class="imagelayer"/><g class="shapelayer"/></g><g class="cartesianlayer"><g class="subplot xy"><g class="layer-subplot"><g class="shapelayer"/><g class="imagelayer"/></g><g class="minor-gridlayer"><g class="x"/><g class="y"/></g><g class="gridlayer"><g class="x"><path class="xgrid crisp" transform="translate(212.09,0)" d="M0,100v420" style="stroke: rgb(255, 255, 255); stroke-opacity: 1; stroke-width: 1px;"/><path class="xgrid crisp" transform="translate(340.18,0)" d="M0,100v420" style="stroke: rgb(255, 255, 255); stroke-opacity: 1; stroke-width: 1px;"/><path class="xgrid crisp" transform="translate(468.26,0)" d="M0,100v420" style="stroke: rgb(255, 255, 255); stroke-opacity: 1; stroke-width: 1px;"/></g><g class="y"><path class="ygrid crisp" transform="translate(0,465.75)" d="M84,0h436" style="stroke: rgb(255, 255, 255); stroke-opacity: 1; stroke-width: 1px;"/><path class="ygrid crisp" transform="translate(0,390.52)" d="M84,0h436" style="stroke: rgb(255, 255, 255); stroke-opacity: 1; stroke-width: 1px;"/><path class="ygrid crisp" transform="translate(0,315.3)" d="M84,0h436" style="stroke: rgb(255, 255, 255); stroke-opacity: 1; stroke-width: 1px;"/><path class="ygrid crisp" transform="translate(0,240.07)" d="M84,0h436" style="stroke: rgb(255, 255, 255); stroke-opacity: 1; stroke-width: 1px;"/><path class="ygrid crisp" transform="translate(0,164.84)" d="M84,0h436" style="stroke: rgb(255, 255, 255); stroke-opacity: 1; stroke-width: 1px;"/></g></g><g class="zerolinelayer"/><g class="layer-between"><g class="shapelayer"/><g class="imagelayer"/></g><path class="xlines-below"/><path class="ylines-below"/><g class="overlines-below"/><g class="xaxislayer-below"/><g class="yaxislayer-below"/><g class="overaxes-below"/><g class="plot" transform="translate(84,100)" clip-path="url(#clip856d50xyplot)"><g class="scatterlayer mlayer"><g class="trace scatter trace3e77e0" style="stroke-miterlimit: 2; opacity: 1;"><g class="fills"/><g class="errorbars"/><g class="lines"><path class="js-line" d="M7.69,196.56L12.81,193.69L15.37,194.41L17.93,198L23.06,198.71L25.62,185.08L30.74,174.31L33.3,170L38.43,181.49L40.99,188.67L43.55,209.47L51.24,224.53L56.36,203.02L58.92,190.82L61.48,190.82L66.61,207.32L69.17,221.67L74.29,236.72L76.85,241.74L81.98,253.2L84.54,261.79L87.1,280.41L92.22,285.42L94.79,276.11L99.91,251.05L102.47,244.6L105.03,240.3L110.16,247.47L112.72,243.89L117.84,251.77L120.4,261.79L125.53,276.11L128.09,278.26L130.65,271.1L135.77,263.23L138.34,264.66L143.46,268.95L146.02,259.65L148.58,232.42L156.27,195.84L161.39,199.43L163.95,210.19L169.08,210.91L171.64,210.91L174.2,200.15L179.32,205.17L181.89,217.36L187.01,228.12L189.57,221.67L192.13,198L197.26,185.79L199.82,187.23L204.94,210.91L207.5,246.75L212.63,278.26L215.19,308.31L217.75,326.9L222.87,346.19L225.44,362.61L233.12,383.31L235.68,386.16L243.37,399L248.49,395.43L256.18,348.33L258.74,305.45L261.3,235.29L266.42,195.13L268.99,164.25L274.11,168.56L276.67,175.74L279.23,188.67L284.36,181.49L286.92,162.1L292.04,151.32L294.6,150.6L302.29,152.04L304.85,149.17L309.97,157.79L312.54,159.94L320.22,208.04L322.78,225.25L330.47,231.7L335.59,221.67L343.28,180.77L345.84,144.14L348.4,94.51L353.52,43.36L356.09,30.38L361.21,21L371.46,120.41L374.02,158.51L381.7,213.78L386.83,219.51L389.39,205.17L391.95,195.13L397.07,194.41L399.64,185.79L404.76,168.56L407.32,150.6L412.44,153.48L415.01,167.13L417.57,176.46L422.69,177.18L425.25,174.31L430.38,180.05L432.94,175.03L435.5,175.74" style="vector-effect: none; fill: none; stroke: rgb(99, 110, 250); stroke-opacity: 1; stroke-width: 2px; opacity: 1;"/></g><g class="points"/><g class="text"/></g></g></g><g class="overplot"/><path class="xlines-above crisp" d="M83,520.5H521M83,99.5H521" style="fill: none; stroke-width: 1px; stroke: rgb(0, 0, 0); stroke-opacity: 1;"/><path class="ylines-above crisp" d="M83.5,100V520M520.5,100V520" style="fill: none; stroke-width: 1px; stroke: rgb(0, 0, 0); stroke-opacity: 1;"/><g class="overlines-above"/><g class="xaxislayer-above"><g class="xtick"><text text-anchor="middle" x="0" y="535.4" transform="translate(84,0)" style="font-family: 'Open Sans', verdana, arial, sans-serif; font-size: 12px; fill: rgb(42, 63, 95); fill-opacity: 1; white-space: pre; opacity: 1;">0</text></g><g class="xtick"><text text-anchor="middle" x="0" y="535.4" style="font-family: 'Open Sans', verdana, arial, sans-serif; font-size: 12px; fill: rgb(42, 63, 95); fill-opacity: 1; white-space: pre; opacity: 1;" transform="translate(212.09,0)">50</text></g><g class="xtick"><text text-anchor="middle" x="0" y="535.4" style="font-family: 'Open Sans', verdana, arial, sans-serif; font-size: 12px; fill: rgb(42, 63, 95); fill-opacity: 1; white-space: pre; opacity: 1;" transform="translate(340.18,0)">100</text></g><g class="xtick"><text text-anchor="middle" x="0" y="535.4" style="font-family: 'Open Sans', verdana, arial, sans-serif; font-size: 12px; fill: rgb(42, 63, 95); fill-opacity: 1; white-space: pre; opacity: 1;" transform="translate(468.26,0)">150</text></g></g><g class="yaxislayer-above"><g class="ytick"><text text-anchor="end" x="80.6" y="4.199999999999999" transform="translate(0,465.75)" style="font-family: 'Open Sans', verdana, arial, sans-serif; font-size: 12px; fill: rgb(42, 63, 95); fill-opacity: 1; white-space: pre; opacity: 1;">0.10192</text></g><g class="ytick"><text text-anchor="end" x="80.6" y="4.199999999999999" style="font-family: 'Open Sans', verdana, arial, sans-serif; font-size: 12px; fill: rgb(42, 63, 95); fill-opacity: 1; white-space: pre; opacity: 1;" transform="translate(0,390.52)">0.10194</text></g><g class="ytick"><text text-anchor="end" x="80.6" y="4.199999999999999" style="font-family: 'Open Sans', verdana, arial, sans-serif; font-size: 12px; fill: rgb(42, 63, 95); fill-opacity: 1; white-space: pre; opacity: 1;" transform="translate(0,315.3)">0.10196</text></g><g class="ytick"><text text-anchor="end" x="80.6" y="4.199999999999999" style="font-family: 'Open Sans', verdana, arial, sans-serif; font-size: 12px; fill: rgb(42, 63, 95); fill-opacity: 1; white-space: pre; opacity: 1;" transform="translate(0,240.07)">0.10198</text></g><g class="ytick"><text text-anchor="end" x="80.6" y="4.199999999999999" style="font-family: 'Open Sans', verdana, arial, sans-serif; font-size: 12px; fill: rgb(42, 63, 95); fill-opacity: 1; white-space: pre; opacity: 1;" transform="translate(0,164.84)">0.102</text></g></g><g class="overaxes-above"/></g></g><g class="polarlayer"/><g class="smithlayer"/><g class="ternarylayer"/><g class="geolayer"/><g class="funnelarealayer"/><g class="pielayer"/><g class="iciclelayer"/><g class="treemaplayer"/><g class="sunburstlayer"/><g class="glimages"/><defs id="topdefs-856d50"><g class="clips"/></defs><g class="layer-above"><g class="imagelayer"/><g class="shapelayer"><g class="shape-group" data-index="0" clip-path="url(#clip856d50x)"><path data-index="0" fill-rule="evenodd" d="M96.81,520L96.81,100" style="opacity: 1; stroke: rgb(0, 0, 0); stroke-opacity: 1; fill: rgb(0, 0, 0); fill-opacity: 0; stroke-width: 1px;"/></g><g class="shape-group" data-index="1" clip-path="url(#clip856d50x)"><path data-index="1" fill-rule="evenodd" d="M135.24,520L135.24,100" style="opacity: 1; stroke: rgb(0, 0, 0); stroke-opacity: 1; fill: rgb(0, 0, 0); fill-opacity: 0; stroke-width: 1px;"/></g><g class="shape-group" data-index="2" clip-path="url(#clip856d50x)"><path data-index="2" fill-rule="evenodd" d="M173.66,520L173.66,100" style="opacity: 1; stroke: rgb(0, 0, 0); stroke-opacity: 1; fill: rgb(0, 0, 0); fill-opacity: 0; stroke-width: 1px;"/></g><g class="shape-group" data-index="3" clip-path="url(#clip856d50x)"><path data-index="3" fill-rule="evenodd" d="M212.09,520L212.09,100" style="opacity: 1; stroke: rgb(0, 0, 0); stroke-opacity: 1; fill: rgb(0, 0, 0); fill-opacity: 0; stroke-width: 1px;"/></g><g class="shape-group" data-index="4" clip-path="url(#clip856d50x)"><path data-index="4" fill-rule="evenodd" d="M250.51,520L250.51,100" style="opacity: 1; stroke: rgb(0, 0, 0); stroke-opacity: 1; fill: rgb(0, 0, 0); fill-opacity: 0; stroke-width: 1px;"/></g><g class="shape-group" data-index="5" clip-path="url(#clip856d50x)"><path data-index="5" fill-rule="evenodd" d="M288.94,520L288.94,100" style="opacity: 1; stroke: rgb(0, 0, 0); stroke-opacity: 1; fill: rgb(0, 0, 0); fill-opacity: 0; stroke-width: 1px;"/></g><g class="shape-group" data-index="6" clip-path="url(#clip856d50x)"><path data-index="6" fill-rule="evenodd" d="M327.37,520L327.37,100" style="opacity: 1; stroke: rgb(0, 0, 0); stroke-opacity: 1; fill: rgb(0, 0, 0); fill-opacity: 0; stroke-width: 1px;"/></g><g class="shape-group" data-index="7" clip-path="url(#clip856d50x)"><path data-index="7" fill-rule="evenodd" d="M365.79,520L365.79,100" style="opacity: 1; stroke: rgb(0, 0, 0); stroke-opacity: 1; fill: rgb(0, 0, 0); fill-opacity: 0; stroke-width: 1px;"/></g><g class="shape-group" data-index="8" clip-path="url(#clip856d50x)"><path data-index="8" fill-rule="evenodd" d="M404.22,520L404.22,100" style="opacity: 1; stroke: rgb(0, 0, 0); stroke-opacity: 1; fill: rgb(0, 0, 0); fill-opacity: 0; stroke-width: 1px;"/></g><g class="shape-group" data-index="9" clip-path="url(#clip856d50x)"><path data-index="9" fill-rule="evenodd" d="M442.65,520L442.65,100" style="opacity: 1; stroke: rgb(0, 0, 0); stroke-opacity: 1; fill: rgb(0, 0, 0); fill-opacity: 0; stroke-width: 1px;"/></g><g class="shape-group" data-index="10" clip-path="url(#clip856d50x)"><path data-index="10" fill-rule="evenodd" d="M481.07,520L481.07,100" style="opacity: 1; stroke: rgb(0, 0, 0); stroke-opacity: 1; fill: rgb(0, 0, 0); fill-opacity: 0; stroke-width: 1px;"/></g><g class="shape-group" data-index="11" clip-path="url(#clip856d50x)"><path data-index="11" fill-rule="evenodd" d="M519.5,520L519.5,100" style="opacity: 1; stroke: rgb(0, 0, 0); stroke-opacity: 1; fill: rgb(0, 0, 0); fill-opacity: 0; stroke-width: 1px;"/></g></g></g><g class="infolayer"><g class="g-gtitle"><text class="gtitle" x="30" y="50" text-anchor="start" dy="0em" style="font-family: 'Open Sans', verdana, arial, sans-serif; font-size: 17px; fill: rgb(42, 63, 95); opacity: 1; white-space: pre;">Raw SGP30 Sensor Data, phase 2</text></g><g class="g-xtitle"><text class="xtitle" x="302" y="562.70625" text-anchor="middle" style="font-family: 'Open Sans', verdana, arial, sans-serif; font-size: 14px; fill: rgb(42, 63, 95); opacity: 1; white-space: pre;">Time (sec)</text></g><g class="g-ytitle"><text class="ytitle" transform="rotate(-90,17.818749999999994,310)" x="17.818749999999994" y="310" text-anchor="middle" style="font-family: 'Open Sans', verdana, arial, sans-serif; font-size: 14px; fill: rgb(42, 63, 95); opacity: 1; white-space: pre;">1/log[Raw Value]</text></g></g></svg>