<svg class="main-svg" xmlns="http://www.w3.org/2000/svg" xmlns:xlink="http://www.w3.org/1999/xlink" width="600" height="600" style="" viewBox="0 0 600 600"><rect x="0" y="0" width="600" height="600" style="fill: rgb(255, 255, 255); fill-opacity: 1;"/><defs id="defs-b354d4"><g class="clips"><clipPath id="clipb354d4xyplot" class="plotclip"><rect width="440" height="420"/></clipPath><clipPath class="axesclip" id="clipb354d4x"><rect x="80" y="0" width="440" height="600"/></clipPath><clipPath class="axesclip" id="clipb354d4y"><rect x="0" y="100" width="600" height="420"/></clipPath><clipPath class="axesclip" id="clipb354d4xy"><rect x="80" y="100" width="440" height="420"/></clipPath></g><g class="gradients"/><g class="patterns"/></defs><g class="bglayer"><rect class="bg" x="80" y="100" width="440" height="420" style="fill: rgb(0, 0, 0); fill-opacity: 0; stroke-width: 0;"/></g><g class="layer-below"><g class="imagelayer"/><g class="shapelayer"/></g><g class="cartesianlayer"><g class="subplot xy"><g class="layer-subplot"><g class="shapelayer"/><g class="imagelayer"/></g><g class="minor-gridlayer"><g class="x"/><g class="y"/></g><g class="gridlayer"><g class="x"><path class="xgrid crisp" transform="translate(211.3,0)" d="M0,100v420" style="stroke: rgb(255, 255, 255); stroke-opacity: 1; stroke-width: 1px;"/><path class="xgrid crisp" transform="translate(342.11,0)" d="M0,100v420" style="stroke: rgb(255, 255, 255); stroke-opacity: 1; stroke-width: 1px;"/><path class="xgrid crisp" transform="translate(472.91,0)" d="M0,100v420" style="stroke: rgb(255, 255, 255); stroke-opacity: 1; stroke-width: 1px;"/></g><g class="y"><path class="ygrid crisp" transform="translate(0,512.55)" d="M80,0h440" style="stroke: rgb(255, 255, 255); stroke-opacity: 1; stroke-width: 1px;"/><path class="ygrid crisp" transform="translate(0,430.18)" d="M80,0h440" style="stroke: rgb(255, 255, 255); stroke-opacity: 1; stroke-width: 1px;"/><path class="ygrid crisp" transform="translate(0,347.81)" d="M80,0h440" style="stroke: rgb(255, 255, 255); stroke-opacity: 1; stroke-width: 1px;"/><path class="ygrid crisp" transform="translate(0,265.44)" d="M80,0h440" style="stroke: rgb(255, 255, 255); stroke-opacity: 1; stroke-width: 1px;"/><path class="ygrid crisp" transform="translate(0,183.06)" d="M80,0h440" style="stroke: rgb(255, 255, 255); stroke-opacity: 1; stroke-width: 1px;"/></g></g><g class="zerolinelayer"/><g class="layer-between"><g class="shapelayer"/><g class="imagelayer"/></g><path class="xlines-below"/><path class="ylines-below"/><g class="overlines-below"/><g class="xaxislayer-below"/><g class="yaxislayer-below"/><g class="overaxes-below"/><g class="plot" transform="translate(80,100)" clip-path="url(#clipb354d4xyplot)"><g class="scatterlayer mlayer"><g class="trace scatter trace17ee20" style="stroke-miterlimit: 2; opacity: 1;"><g class="fills"/><g class="errorbars"/><g class="lines"><path class="js-line" d="M5.73,369.92L10.96,371.22L13.58,374.38L24.04,377.81L29.28,378.85L31.89,380.07L37.13,381.39L44.97,380.83L47.59,378.76L50.21,378.09L55.44,378L58.05,378.19L63.29,377.44L65.9,376.88L68.52,377.35L94.68,380.45L99.91,381.87L102.53,382.62L107.76,383.09L112.99,382.24L118.22,383.19L120.84,383.85L126.07,384.14L133.92,384.04L136.54,385.08L147,384.04L152.23,384.71L154.85,385.56L157.46,352.62L162.7,286.41L165.31,187.34L173.16,86.19L178.39,66.58L183.63,33.16L188.86,24.57L191.47,21L196.71,23.37L199.32,43.81L201.94,94.01L207.17,153.79L209.79,206.8L215.02,234.57L217.63,221.18L222.87,177.65L225.48,114.47L228.1,81.88L233.33,64.23L235.95,70.98L241.18,101.9L246.41,221.48L251.64,267L254.26,290.43L259.49,299.3L262.11,301.34L267.34,311.14L272.57,338.95L277.8,351.16L280.42,362.84L285.65,371.96L290.88,382.44L296.12,385L298.73,387.1L303.96,389.4L306.58,391.61L311.81,393.15L317.04,395.98L322.28,396.17L324.89,395.38L330.13,395.38L335.36,395.97L340.59,395.67L343.21,396.16L348.44,398.02L351.05,398.71L356.29,399L358.9,397.73L361.52,397.33L369.37,397.73L374.6,397.73L377.21,398.31L382.45,398.51L387.68,397.72L392.91,396.94L403.37,396.94L405.99,396.55L413.84,397.04L419.07,396.45L421.69,396.75L426.92,396.55L429.54,397.33L432.15,396.94L437.38,396.94L440,397.92" style="vector-effect: none; fill: none; stroke: rgb(99, 110, 250); stroke-opacity: 1; stroke-width: 2px; opacity: 1;"/></g><g class="points"/><g class="text"/></g></g></g><g class="overplot"/><path class="xlines-above crisp" d="M79,520.5H521M79,99.5H521" style="fill: none; stroke-width: 1px; stroke: rgb(0, 0, 0); stroke-opacity: 1;"/><path class="ylines-above crisp" d="M79.5,100V520M520.5,100V520" style="fill: none; stroke-width: 1px; stroke: rgb(0, 0, 0); stroke-opacity: 1;"/><g class="overlines-above"/><g class="xaxislayer-above"><g class="xtick"><text text-anchor="middle" x="0" y="535.4" transform="translate(80.5,0)" style="font-family: 'Open Sans', verdana, arial, sans-serif; font-size: 12px; fill: rgb(42, 63, 95); fill-opacity: 1; white-space: pre; opacity: 1;">0</text></g><g class="xtick"><text text-anchor="middle" x="0" y="535.4" style="font-family: 'Open Sans', verdana, arial, sans-serif; font-size: 12px; fill: rgb(42, 63, 95); fill-opacity: 1; white-space: pre; opacity: 1;" transform="translate(211.3,0)">50</text></g><g class="xtick"><text text-anchor="middle" x="0" y="535.4" style="font-family: 'Open Sans', verdana, arial, sans-serif; font-size: 12px; fill: rgb(42, 63, 95); fill-opacity: 1; white-space: pre; opacity: 1;" transform="translate(342.11,0)">100</text></g><g class="xtick"><text text-anchor="middle" x="0" y="535.4" style="font-family: 'Open Sans', verdana, arial, sans-serif; font-size: 12px; fill: rgb(42, 63, 95); fill-opacity: 1; white-space: pre; opacity: 1;" transform="translate(472.91,0)">150</text></g></g><g class="yaxislayer-above"><g class="ytick"><text text-anchor="end" x="76.6" y="4.199999999999999" transform="translate(0,512.55)" style="font-family: 'Open Sans', verdana, arial, sans-serif; font-size: 12px; fill: rgb(42, 63, 95); fill-opacity: 1; white-space: pre; opacity: 1;">0.096</text></g><g class="ytick"><text text-anchor="end" x="76.6" y="4.199999999999999" style="font-family: 'Open Sans', verdana, arial, sans-serif; font-size: 12px; fill: rgb(42, 63, 95); fill-opacity: 1; white-space: pre; opacity: 1;" transform="translate(0,430.18)">0.098</text></g><g class="ytick"><text text-anchor="end" x="76.6" y="4.199999999999999" style="font-family: 'Open Sans', verdana, arial, sans-serif; font-size: 12px; fill: rgb(42, 63, 95); fill-opacity: 1; white-space: pre; opacity: 1;" transform="translate(0,347.81)">0.1</text></g><g class="ytick"><text text-anchor="end" x="76.6" y="4.199999999999999" style="font-family: 'Open Sans', verdana, arial, sans-serif; font-size: 12px; fill: rgb(42, 63, 95); fill-opacity: 1; white-space: pre; opacity: 1;" transform="translate(0,265.44)">0.102</text></g><g class="ytick"><text text-anchor="end" x="76.6" y="4.199999999999999" style="font-family: 'Open Sans', verdana, arial, sans-serif; font-size: 12px; fill: rgb(42, 63, 95); fill-opacity: 1; white-space: pre; opacity: 1;" transform="translate(0,183.06)">0.104</text></g><g class="ytick"><text text-anchor="end" x="76.6" y="4.199999999999999" style="font-family: 'Open Sans', verdana, arial, sans-serif; font-size: 12px; fill: rgb(42, 63, 95); fill-opacity: 1; white-space: pre; opacity: 1;" transform="translate(0,100.69)">0.106</text></g></g><g class="overaxes-above"/></g></g><g class="polarlayer"/><g class="smithlayer"/><g class="ternarylayer"/><g class="geolayer"/><g class="funnelarealayer"/><g class="pielayer"/><g class="iciclelayer"/><g class="treemaplayer"/><g class="sunburstlayer"/><g class="glimages"/><defs id="topdefs-b354d4"><g class="clips"/></defs><g class="layer-above"><g class="imagelayer"/><g class="shapelayer"><g class="shape-group" data-index="0" clip-path="url(#clipb354d4x)"><path data-index="0" fill-rule="evenodd" d="M80.5,520L80.5,100" style="opacity: 1; stroke: rgb(0, 0, 0); stroke-opacity: 1; fill: rgb(0, 0, 0); fill-opacity: 0; stroke-width: 1px;"/></g><g class="shape-group" data-index="1" clip-path="url(#clipb354d4x)"><path data-index="1" fill-rule="evenodd" d="M119.74000000000001,520L119.74000000000001,100" style="opacity: 1; stroke: rgb(0, 0, 0); stroke-opacity: 1; fill: rgb(0, 0, 0); fill-opacity: 0; stroke-width: 1px;"/></g><g class="shape-group" data-index="2" clip-path="url(#clipb354d4x)"><path data-index="2" fill-rule="evenodd" d="M158.98000000000002,520L158.98000000000002,100" style="opacity: 1; stroke: rgb(0, 0, 0); stroke-opacity: 1; fill: rgb(0, 0, 0); fill-opacity: 0; stroke-width: 1px;"/></g><g class="shape-group" data-index="3" clip-path="url(#clipb354d4x)"><path data-index="3" fill-rule="evenodd" d="M198.22,520L198.22,100" style="opacity: 1; stroke: rgb(0, 0, 0); stroke-opacity: 1; fill: rgb(0, 0, 0); fill-opacity: 0; stroke-width: 1px;"/></g><g class="shape-group" data-index="4" clip-path="url(#clipb354d4x)"><path data-index="4" fill-rule="evenodd" d="M237.46,520L237.46,100" style="opacity: 1; stroke: rgb(0, 0, 0); stroke-opacity: 1; fill: rgb(0, 0, 0); fill-opacity: 0; stroke-width: 1px;"/></g><g class="shape-group" data-index="5" clip-path="url(#clipb354d4x)"><path data-index="5" fill-rule="evenodd" d="M276.71000000000004,520L276.71000000000004,100" style="opacity: 1; stroke: rgb(0, 0, 0); stroke-opacity: 1; fill: rgb(0, 0, 0); fill-opacity: 0; stroke-width: 1px;"/></g><g class="shape-group" data-index="6" clip-path="url(#clipb354d4x)"><path data-index="6" fill-rule="evenodd" d="M315.95,520L315.95,100" style="opacity: 1; stroke: rgb(0, 0, 0); stroke-opacity: 1; fill: rgb(0, 0, 0); fill-opacity: 0; stroke-width: 1px;"/></g><g class="shape-group" data-index="7" clip-path="url(#clipb354d4x)"><path data-index="7" fill-rule="evenodd" d="M355.19,520L355.19,100" style="opacity: 1; stroke: rgb(0, 0, 0); stroke-opacity: 1; fill: rgb(0, 0, 0); fill-opacity: 0; stroke-width: 1px;"/></g><g class="shape-group" data-index="8" clip-path="url(#clipb354d4x)"><path data-index="8" fill-rule="evenodd" d="M394.43,520L394.43,100" style="opacity: 1; stroke: rgb(0, 0, 0); stroke-opacity: 1; fill: rgb(0, 0, 0); fill-opacity: 0; stroke-width: 1px;"/></g><g class="shape-group" data-index="9" clip-path="url(#clipb354d4x)"><path data-index="9" fill-rule="evenodd" d="M433.67,520L433.67,100" style="opacity: 1; stroke: rgb(0, 0, 0); stroke-opacity: 1; fill: rgb(0, 0, 0); fill-opacity: 0; stroke-width: 1px;"/></g><g class="shape-group" data-index="10" clip-path="url(#clipb354d4x)"><path data-index="10" fill-rule="evenodd" d="M472.91,520L472.91,100" style="opacity: 1; stroke: rgb(0, 0, 0); stroke-opacity: 1; fill: rgb(0, 0, 0); fill-opacity: 0; stroke-width: 1px;"/></g><g class="shape-group" data-index="11" clip-path="url(#clipb354d4x)"><path data-index="11" fill-rule="evenodd" d="M512.15,520L512.15,100" style="opacity: 1; stroke: rgb(0, 0, 0); stroke-opacity: 1; fill: rgb(0, 0, 0); fill-opacity: 0; stroke-width: 1px;"/></g></g></g><g class="infolayer"><g class="g-gtitle"><text class="gtitle" x="30" y="50" text-anchor="start" dy="0em" style="font-family: 'Open Sans', verdana, arial, sans-serif; font-size: 17px; fill: rgb(42, 63, 95); opacity: 1; white-space: pre;">Raw BME680 Sensor Data, phase 3</text></g><g class="g-xtitle"><text class="xtitle" x="300" y="562.70625" text-anchor="middle" style="font-family: 'Open Sans', verdana, arial, sans-serif; font-size: 14px; fill: rgb(42, 63, 95); opacity: 1; white-space: pre;">Time (sec)</text></g><g class="g-ytitle"><text class="ytitle" transform="rotate(-90,27.1625,310)" x="27.1625" y="310" text-anchor="middle" style="font-family: 'Open Sans', verdana, arial, sans-serif; font-size: 14px; fill: rgb(42, 63, 95); opacity: 1; white-space: pre;">1/log[Raw Value]</text></g></g></svg>