<svg class="main-svg" xmlns="http://www.w3.org/2000/svg" xmlns:xlink="http://www.w3.org/1999/xlink" width="600" height="600" style="" viewBox="0 0 600 600"><rect x="0" y="0" width="600" height="600" style="fill: rgb(255, 255, 255); fill-opacity: 1;"/><defs id="defs-3ef92b"><g class="clips"><clipPath id="clip3ef92bxyplot" class="plotclip"><rect width="440" height="420"/></clipPath><clipPath class="axesclip" id="clip3ef92bx"><rect x="80" y="0" width="440" height="600"/></clipPath><clipPath class="axesclip" id="clip3ef92by"><rect x="0" y="100" width="600" height="420"/></clipPath><clipPath class="axesclip" id="clip3ef92bxy"><rect x="80" y="100" width="440" height="420"/></clipPath></g><g class="gradients"/><g class="patterns"/></defs><g class="bglayer"><rect class="bg" x="80" y="100" width="440" height="420" style="fill: rgb(0, 0, 0); fill-opacity: 0; stroke-width: 0;"/></g><g class="layer-below"><g class="imagelayer"/><g class="shapelayer"/></g><g class="cartesianlayer"><g class="subplot xy"><g class="layer-subplot"><g class="shapelayer"/><g class="imagelayer"/></g><g class="minor-gridlayer"><g class="x"/><g class="y"/></g><g class="gridlayer"><g class="x"><path class="xgrid crisp" transform="translate(168.29000000000002,0)" d="M0,100v420" style="stroke: rgb(255, 255, 255); stroke-opacity: 1; stroke-width: 1px;"/><path class="xgrid crisp" transform="translate(256.59000000000003,0)" d="M0,100v420" style="stroke: rgb(255, 255, 255); stroke-opacity: 1; stroke-width: 1px;"/><path class="xgrid crisp" transform="translate(344.88,0)" d="M0,100v420" style="stroke: rgb(255, 255, 255); stroke-opacity: 1; stroke-width: 1px;"/><path class="xgrid crisp" transform="translate(433.18,0)" d="M0,100v420" style="stroke: rgb(255, 255, 255); stroke-opacity: 1; stroke-width: 1px;"/></g><g class="y"><path class="ygrid crisp" transform="translate(0,496.28)" d="M80,0h440" style="stroke: rgb(255, 255, 255); stroke-opacity: 1; stroke-width: 1px;"/><path class="ygrid crisp" transform="translate(0,421.52)" d="M80,0h440" style="stroke: rgb(255, 255, 255); stroke-opacity: 1; stroke-width: 1px;"/><path class="ygrid crisp" transform="translate(0,346.77)" d="M80,0h440" style="stroke: rgb(255, 255, 255); stroke-opacity: 1; stroke-width: 1px;"/><path class="ygrid crisp" transform="translate(0,272.01)" d="M80,0h440" style="stroke: rgb(255, 255, 255); stroke-opacity: 1; stroke-width: 1px;"/><path class="ygrid crisp" transform="translate(0,197.25)" d="M80,0h440" style="stroke: rgb(255, 255, 255); stroke-opacity: 1; stroke-width: 1px;"/><path class="ygrid crisp" transform="translate(0,122.49)" d="M80,0h440" style="stroke: rgb(255, 255, 255); stroke-opacity: 1; stroke-width: 1px;"/></g></g><g class="zerolinelayer"/><g class="layer-between"><g class="shapelayer"/><g class="imagelayer"/></g><path class="xlines-below"/><path class="ylines-below"/><g class="overlines-below"/><g class="xaxislayer-below"/><g class="yaxislayer-below"/><g class="overaxes-below"/><g class="plot" transform="translate(80,100)" clip-path="url(#clip3ef92bxyplot)"><g class="scatterlayer mlayer"><g class="trace scatter tracec9bb4c" style="stroke-miterlimit: 2; opacity: 1;"><g class="fills"/><g class="errorbars"/><g class="lines"><path class="js-line" d="M8.83,21L10.3,49.2L11.04,81.25L12.51,117.08L13.24,155.66L15.45,234.08L16.19,270.29L20.6,361.92L21.34,373.29L25.02,392.45L25.75,395.3L26.49,397.15L27.96,398L28.7,398.68L30.17,399L32.37,397.54L33.11,396.58L33.85,394.98L35.32,393.73L38.26,388.49L39,385.53L42.68,376.18L43.41,372.9L45.62,367.75L46.35,365.46L50.03,360.2L50.77,359.52L52.98,359.12L53.71,359.91L57.39,360.16L58.13,360.84L63.28,368.86L64.01,370.29L66.22,374.25L67.69,376.22L68.43,378.08L69.9,379.36L73.58,379.68L75.05,379.22L82.41,371.04L83.14,370.32L86.09,368.61L87.56,366.75L93.44,344.06L94.92,341.3L96.39,337.96L97.86,338.14L103.01,347.18L103.75,347.65L105.22,347.4L105.95,346.29L108.16,343.52L108.9,341.8L112.58,337.81L113.31,336.63L115.52,334.47L116.25,333.28L121.4,330.8L122.88,330.8L125.08,331.99L125.82,333.25L128.03,335.37L128.76,336.63L130.97,338.46L132.44,339.07L138.33,343.77L139.8,344.21L143.48,346.36L144.95,346.25L146.42,345.25L147.89,344.85L150.84,344.53L152.31,344.6L159.67,343.77L160.4,343.09L170.7,342.81L172.17,341.51L175.12,335.69L175.85,334.51L177.32,333.53L178.06,331.99L181,326.63L182.47,325.4L186.15,322.95L187.63,321.62L188.36,320.07L189.83,319.03L192.78,316.57L193.51,315.46L202.34,309.57L203.08,308.02L206.02,303.15L207.49,301.66L211.17,295.84L212.64,295.12L215.59,293.71L217.06,293.53L218.53,294.03L220,295.3L222.94,299.53L223.68,301.88L227.36,308.64L228.09,310.87L230.3,313.87L231.04,315.53L237.66,321.58L238.39,322.05L242.07,322.63L242.81,321.98L243.55,321.84L245.02,320.72L250.17,316.68L250.9,315.6L255.32,311.52L256.05,310.69L261.2,308.13L262.68,307.66L264.88,305.75L265.62,305.42L270.77,302.5L272.24,302.35L272.98,302.35L273.71,303.29L275.92,304.3L277.39,305.21L279.6,307.48L280.33,307.95L283.28,306.79L284.75,305.28L292.84,288.6L293.58,287.55L297.26,287.73L297.99,287.99L305.35,297.62L306.09,299.57L307.56,301.16L308.29,303.07L313.44,309.43L314.92,309.72L317.86,306.22L318.6,304.12L320.8,297.65L322.27,294.07L325.95,271.27L327.42,264.94L329.63,252.86L330.37,247.91L331.1,242.47L332.58,237.95L333.31,234.62L334.78,232.14L335.52,230.53L336.99,230.35L337.73,230.53L338.46,231.81L339.93,234.04L340.67,236.89L342.14,241.09L342.88,246.19L345.82,264.36L347.29,270.61L348.03,277.11L349.5,282.84L350.97,290.96L352.44,294.29L353.18,295.41L354.65,295.77L357.59,293.71L358.33,292.26L360.54,290.45L362.01,290.56L362.74,290.74L363.48,292.26L369.36,301.66L370.1,303.51L370.84,305.02L372.31,306.25L374.52,307.52L375.25,307.73L378.19,309.32L379.67,309.86L382.61,310.59L383.34,311.02L389.97,310.26L390.7,310.66L394.38,310.62L395.12,311.31L398.06,312.86L399.53,312.79L403.21,313.4L404.68,313.04L407.63,310.73L408.36,310.22L410.57,308.6L412.04,306.98L413.51,303.33L414.98,302.42L415.72,301.01L417.19,300L420.87,296.82L422.34,296.75L427.49,296.57L428.23,295.37L429.7,293.24L430.43,288.75L431.91,282.81L432.64,275.7L435.59,247.32L437.06,236.09L437.79,224.35L439.26,213.03L440,202.95" style="vector-effect: none; fill: none; stroke: rgb(99, 110, 250); stroke-opacity: 1; stroke-width: 2px; opacity: 1;"/></g><g class="points"/><g class="text"/></g></g></g><g class="overplot"/><path class="xlines-above crisp" d="M79,520.5H521M79,99.5H521" style="fill: none; stroke-width: 1px; stroke: rgb(0, 0, 0); stroke-opacity: 1;"/><path class="ylines-above crisp" d="M79.5,100V520M520.5,100V520" style="fill: none; stroke-width: 1px; stroke: rgb(0, 0, 0); stroke-opacity: 1;"/><g class="overlines-above"/><g class="xaxislayer-above"><g class="xtick"><text text-anchor="middle" x="0" y="535.4" transform="translate(80,0)" style="font-family: 'Open Sans', verdana, arial, sans-serif; font-size: 12px; fill: rgb(42, 63, 95); fill-opacity: 1; white-space: pre; opacity: 1;">0</text></g><g class="xtick"><text text-anchor="middle" x="0" y="535.4" style="font-family: 'Open Sans', verdana, arial, sans-serif; font-size: 12px; fill: rgb(42, 63, 95); fill-opacity: 1; white-space: pre; opacity: 1;" transform="translate(168.29000000000002,0)">2</text></g><g class="xtick"><text text-anchor="middle" x="0" y="535.4" style="font-family: 'Open Sans', verdana, arial, sans-serif; font-size: 12px; fill: rgb(42, 63, 95); fill-opacity: 1; white-space: pre; opacity: 1;" transform="translate(256.59000000000003,0)">4</text></g><g class="xtick"><text text-anchor="middle" x="0" y="535.4" style="font-family: 'Open Sans', verdana, arial, sans-serif; font-size: 12px; fill: rgb(42, 63, 95); fill-opacity: 1; white-space: pre; opacity: 1;" transform="translate(344.88,0)">6</text></g><g class="xtick"><text text-anchor="middle" x="0" y="535.4" style="font-family: 'Open Sans', verdana, arial, sans-serif; font-size: 12px; fill: rgb(42, 63, 95); fill-opacity: 1; white-space: pre; opacity: 1;" transform="translate(433.18,0)">8</text></g></g><g class="yaxislayer-above"><g class="ytick"><text text-anchor="end" x="76.6" y="4.199999999999999" transform="translate(0,496.28)" style="font-family: 'Open Sans', verdana, arial, sans-serif; font-size: 12px; fill: rgb(42, 63, 95); fill-opacity: 1; white-space: pre; opacity: 1;">0.1004</text></g><g class="ytick"><text text-anchor="end" x="76.6" y="4.199999999999999" style="font-family: 'Open Sans', verdana, arial, sans-serif; font-size: 12px; fill: rgb(42, 63, 95); fill-opacity: 1; white-space: pre; opacity: 1;" transform="translate(0,421.52)">0.1005</text></g><g class="ytick"><text text-anchor="end" x="76.6" y="4.199999999999999" style="font-family: 'Open Sans', verdana, arial, sans-serif; font-size: 12px; fill: rgb(42, 63, 95); fill-opacity: 1; white-space: pre; opacity: 1;" transform="translate(0,346.77)">0.1006</text></g><g class="ytick"><text text-anchor="end" x="76.6" y="4.199999999999999" style="font-family: 'Open Sans', verdana, arial, sans-serif; font-size: 12px; fill: rgb(42, 63, 95); fill-opacity: 1; white-space: pre; opacity: 1;" transform="translate(0,272.01)">0.1007</text></g><g class="ytick"><text text-anchor="end" x="76.6" y="4.199999999999999" style="font-family: 'Open Sans', verdana, arial, sans-serif; font-size: 12px; fill: rgb(42, 63, 95); fill-opacity: 1; white-space: pre; opacity: 1;" transform="translate(0,197.25)">0.1008</text></g><g class="ytick"><text text-anchor="end" x="76.6" y="4.199999999999999" style="font-family: 'Open Sans', verdana, arial, sans-serif; font-size: 12px; fill: rgb(42, 63, 95); fill-opacity: 1; white-space: pre; opacity: 1;" transform="translate(0,122.49)">0.1009</text></g></g><g class="overaxes-above"/></g></g><g class="polarlayer"/><g class="smithlayer"/><g class="ternarylayer"/><g class="geolayer"/><g class="funnelarealayer"/><g class="pielayer"/><g class="iciclelayer"/><g class="treemaplayer"/><g class="sunburstlayer"/><g class="glimages"/><defs id="topdefs-3ef92b"><g class="clips"/></defs><g class="layer-above"><g class="imagelayer"/><g class="shapelayer"/></g><g class="infolayer"><g class="g-gtitle"><text class="gtitle" x="30" y="50" text-anchor="start" dy="0em" style="font-family: 'Open Sans', verdana, arial, sans-serif; font-size: 17px; fill: rgb(42, 63, 95); opacity: 1; white-space: pre;">Raw SGP30 Sensor Data, recovery 1</text></g><g class="g-xtitle"><text class="xtitle" x="300" y="562.70625" text-anchor="middle" style="font-family: 'Open Sans', verdana, arial, sans-serif; font-size: 14px; fill: rgb(42, 63, 95); opacity: 1; white-space: pre;">Time (min)</text></g><g class="g-ytitle"><text class="ytitle" transform="rotate(-90,20.490625,310)" x="20.490625" y="310" text-anchor="middle" style="font-family: 'Open Sans', verdana, arial, sans-serif; font-size: 14px; fill: rgb(42, 63, 95); opacity: 1; white-space: pre;">1/log[Raw Value]</text></g></g></svg>