<svg class="main-svg" xmlns="http://www.w3.org/2000/svg" xmlns:xlink="http://www.w3.org/1999/xlink" width="600" height="600" style="" viewBox="0 0 600 600"><rect x="0" y="0" width="600" height="600" style="fill: rgb(255, 255, 255); fill-opacity: 1;"/><defs id="defs-b2f47d"><g class="clips"><clipPath id="clipb2f47dxyplot" class="plotclip"><rect width="440" height="420"/></clipPath><clipPath class="axesclip" id="clipb2f47dx"><rect x="80" y="0" width="440" height="600"/></clipPath><clipPath class="axesclip" id="clipb2f47dy"><rect x="0" y="100" width="600" height="420"/></clipPath><clipPath class="axesclip" id="clipb2f47dxy"><rect x="80" y="100" width="440" height="420"/></clipPath></g><g class="gradients"/><g class="patterns"/></defs><g class="bglayer"><rect class="bg" x="80" y="100" width="440" height="420" style="fill: rgb(0, 0, 0); fill-opacity: 0; stroke-width: 0;"/></g><g class="layer-below"><g class="imagelayer"/><g class="shapelayer"/></g><g class="cartesianlayer"><g class="subplot xy"><g class="layer-subplot"><g class="shapelayer"/><g class="imagelayer"/></g><g class="minor-gridlayer"><g class="x"/><g class="y"/></g><g class="gridlayer"><g class="x"><path class="xgrid crisp" transform="translate(214.28,0)" d="M0,100v420" style="stroke: rgb(255, 255, 255); stroke-opacity: 1; stroke-width: 1px;"/><path class="xgrid crisp" transform="translate(348.57,0)" d="M0,100v420" style="stroke: rgb(255, 255, 255); stroke-opacity: 1; stroke-width: 1px;"/><path class="xgrid crisp" transform="translate(482.85,0)" d="M0,100v420" style="stroke: rgb(255, 255, 255); stroke-opacity: 1; stroke-width: 1px;"/></g><g class="y"><path class="ygrid crisp" transform="translate(0,492.95)" d="M80,0h440" style="stroke: rgb(255, 255, 255); stroke-opacity: 1; stroke-width: 1px;"/><path class="ygrid crisp" transform="translate(0,415.85)" d="M80,0h440" style="stroke: rgb(255, 255, 255); stroke-opacity: 1; stroke-width: 1px;"/><path class="ygrid crisp" transform="translate(0,338.75)" d="M80,0h440" style="stroke: rgb(255, 255, 255); stroke-opacity: 1; stroke-width: 1px;"/><path class="ygrid crisp" transform="translate(0,261.65999999999997)" d="M80,0h440" style="stroke: rgb(255, 255, 255); stroke-opacity: 1; stroke-width: 1px;"/><path class="ygrid crisp" transform="translate(0,184.56)" d="M80,0h440" style="stroke: rgb(255, 255, 255); stroke-opacity: 1; stroke-width: 1px;"/><path class="ygrid crisp" transform="translate(0,107.46)" d="M80,0h440" style="stroke: rgb(255, 255, 255); stroke-opacity: 1; stroke-width: 1px;"/></g></g><g class="zerolinelayer"/><g class="layer-between"><g class="shapelayer"/><g class="imagelayer"/></g><path class="xlines-below"/><path class="ylines-below"/><g class="overlines-below"/><g class="xaxislayer-below"/><g class="yaxislayer-below"/><g class="overaxes-below"/><g class="plot" transform="translate(80,100)" clip-path="url(#clipb2f47dxyplot)"><g class="scatterlayer mlayer"><g class="trace scatter tracedac6e6" style="stroke-miterlimit: 2; opacity: 1;"><g class="fills"/><g class="errorbars"/><g class="lines"><path class="js-line" d="M5.82,66.26L7.61,80.66L8.5,84.66L9.85,90.63L10.3,92.61L11.64,90.9L12.09,89.07L13.43,80.85L13.88,75.48L15.22,61.26L16.11,52.51L17.9,28.56L18.35,23.54L19.25,21L19.69,22.08L20.59,26.57L21.04,33.78L27.3,184.38L28.2,192.35L29.99,205.81L30.44,208.65L35.81,225.24L36.26,226.21L38.05,228.4L38.94,227.58L42.08,210.22L42.52,206.03L45.21,186.96L45.66,182.88L47.89,175.15L48.34,175.26L51.03,183.48L51.48,187.11L52.82,198.6L53.27,205.06L55.5,223.64L55.95,230.08L57.74,247.91L58.64,253.21L60.87,268.54L61.77,270.58L63.56,275.01L64.01,276.01L66.69,276.38L67.59,275.79L71.17,270.32L71.62,268.66L73.86,262.66L74.3,260.62L76.99,253.47L77.44,251.62L79.67,246.24L80.12,244.2L86.39,213.09L87.28,211L88.18,208.95L89.07,208.16L90.42,207.68L90.86,207.86L92.21,208.5L92.66,209.43L93.55,209.92L94,211.15L94.89,211.37L95.34,212.57L98.47,218.76L98.92,220.25L101.16,227.84L101.61,230.52L104.29,243.42L104.74,246.57L111.01,269.65L111.9,270.91L114.14,275.12L115.04,275.16L115.48,275.57L116.38,275.35L117.72,275.6L118.17,276.01L122.64,280.7L123.09,281.88L124.44,283.69L125.33,285.17L132.04,302.92L132.94,303.77L135.18,306.86L136.07,307.45L137.42,307.7L137.86,308.26L138.31,307.89L139.21,308.18L141,307.92L141.44,307.74L142.79,307.74L143.68,308.07L145.03,307.92L145.47,308.33L148.16,309.28L148.61,310.24L155.77,314.28L156.22,315.24L157.56,315.16L158.01,315.42L162.03,317.51L162.48,317.51L164.27,318.36L165.17,318.5L166.96,319.53L167.85,319.49L170.09,320.04L170.99,320.96L175.46,324.92L175.91,325.95L177.25,327.38L177.7,327.89L180.39,330.64L180.83,331.19L185.31,337.34L186.21,338.33L188.44,340.78L189.34,341L191.13,341.33L191.58,341.95L195.16,344.03L195.61,344.84L197.4,348.78L198.29,349.41L199.19,350.03L200.08,350.65L201.87,351.63L202.77,351.67L203.66,352.36L204.56,352.76L206.35,354.26L207.24,354.55L209.48,354.26L210.38,353.71L212.61,352.91L213.51,353.06L215.3,354.12L215.75,354.48L220.22,359.22L221.12,359.62L222.46,361.7L222.91,362.1L225.6,365.42L226.04,365.93L227.83,368.23L228.73,368.15L232.31,369.14L233.2,368.55L234.1,368.88L234.99,369.65L238.58,371.65L239.47,371.83L241.26,371.54L241.71,371.94L243.95,371.9L244.39,372.45L245.74,373.25L246.19,374.01L249.32,375.36L250.21,375.36L252,374.2L252.9,373.8L253.35,372.96L253.79,373.36L254.69,373.21L255.14,373.65L256.03,373.14L257.82,371.43L258.27,370.01L260.96,365.31L261.4,364.29L262.75,363.05L263.64,363.56L269.91,372.52L270.36,372.99L274.83,375.43L275.73,376.16L280.65,379.03L281.1,379.03L283.78,377.62L284.23,377.8L285.57,378.12L286.47,378.23L288.71,379.43L289.6,379.98L290.05,379.83L290.95,380.45L292.74,381.83L293.18,381.94L295.87,383.43L296.32,383.9L300.35,384.48L300.79,384.96L303.48,386.41L303.93,387.1L305.27,388.04L306.16,388.52L307.51,389.79L307.96,390.22L309.75,390.55L310.64,390.66L312.43,391.6L312.88,390.8L315.12,389.5L315.56,388.95L316.91,389.24L317.36,388.99L319.15,387.72L320.04,387.86L323.17,388.44L323.62,388.23L325.86,389.21L326.31,389.1L328.99,390.29L329.44,390.22L333.47,393.85L333.92,393.63L334.36,394.9L335.26,395.19L335.71,395.34L336.6,394.72L338.39,394.21L338.84,393.42L341.08,392.33L341.53,391.71L341.97,391.46L342.87,391.86L350.93,389.9L351.82,389.82L354.95,391.38L355.4,390.88L360.77,392.58L361.22,393.09L362.56,394.14L363.01,394.25L366.14,394.87L367.04,394.32L368.38,393.23L368.83,393.13L370.62,391.13L371.52,391.35L373.31,390.73L373.75,391.02L375.99,392.33L376.44,392.98L376.89,394.03L377.78,394.07L384.5,397.48L385.39,398.13L387.18,399L388.08,398.49L391.66,397.37L392.11,396.86L396.58,395.74L397.48,394.98L399.27,394.5L399.72,394.21L401.06,394.29L401.95,393.63L403.3,393.6L403.74,394.5L405.09,394.98L405.53,395.3L407.77,395.3L408.22,396.17L410.91,396.53L411.35,396.43L412.7,396.28L413.14,396.03L418.96,392.98L419.41,392.98L421.65,393.13L422.1,393.56L423.44,393.02L423.89,393.71L427.02,394.72L427.91,394.29L433.73,394.25L434.18,394.5L434.63,394.21L435.52,394.65L436.87,394.98L437.31,395.41L440,396.79" style="vector-effect: none; fill: none; stroke: rgb(99, 110, 250); stroke-opacity: 1; stroke-width: 2px; opacity: 1;"/></g><g class="points"/><g class="text"/></g></g></g><g class="overplot"/><path class="xlines-above crisp" d="M79,520.5H521M79,99.5H521" style="fill: none; stroke-width: 1px; stroke: rgb(0, 0, 0); stroke-opacity: 1;"/><path class="ylines-above crisp" d="M79.5,100V520M520.5,100V520" style="fill: none; stroke-width: 1px; stroke: rgb(0, 0, 0); stroke-opacity: 1;"/><g class="overlines-above"/><g class="xaxislayer-above"><g class="xtick"><text text-anchor="middle" x="0" y="535.4" transform="translate(80,0)" style="font-family: 'Open Sans', verdana, arial, sans-serif; font-size: 12px; fill: rgb(42, 63, 95); fill-opacity: 1; white-space: pre; opacity: 1;">0</text></g><g class="xtick"><text text-anchor="middle" x="0" y="535.4" style="font-family: 'Open Sans', verdana, arial, sans-serif; font-size: 12px; fill: rgb(42, 63, 95); fill-opacity: 1; white-space: pre; opacity: 1;" transform="translate(214.28,0)">5</text></g><g class="xtick"><text text-anchor="middle" x="0" y="535.4" style="font-family: 'Open Sans', verdana, arial, sans-serif; font-size: 12px; fill: rgb(42, 63, 95); fill-opacity: 1; white-space: pre; opacity: 1;" transform="translate(348.57,0)">10</text></g><g class="xtick"><text text-anchor="middle" x="0" y="535.4" style="font-family: 'Open Sans', verdana, arial, sans-serif; font-size: 12px; fill: rgb(42, 63, 95); fill-opacity: 1; white-space: pre; opacity: 1;" transform="translate(482.85,0)">15</text></g></g><g class="yaxislayer-above"><g class="ytick"><text text-anchor="end" x="76.6" y="4.199999999999999" transform="translate(0,492.95)" style="font-family: 'Open Sans', verdana, arial, sans-serif; font-size: 12px; fill: rgb(42, 63, 95); fill-opacity: 1; white-space: pre; opacity: 1;">0.1003</text></g><g class="ytick"><text text-anchor="end" x="76.6" y="4.199999999999999" style="font-family: 'Open Sans', verdana, arial, sans-serif; font-size: 12px; fill: rgb(42, 63, 95); fill-opacity: 1; white-space: pre; opacity: 1;" transform="translate(0,415.85)">0.1004</text></g><g class="ytick"><text text-anchor="end" x="76.6" y="4.199999999999999" style="font-family: 'Open Sans', verdana, arial, sans-serif; font-size: 12px; fill: rgb(42, 63, 95); fill-opacity: 1; white-space: pre; opacity: 1;" transform="translate(0,338.75)">0.1005</text></g><g class="ytick"><text text-anchor="end" x="76.6" y="4.199999999999999" style="font-family: 'Open Sans', verdana, arial, sans-serif; font-size: 12px; fill: rgb(42, 63, 95); fill-opacity: 1; white-space: pre; opacity: 1;" transform="translate(0,261.65999999999997)">0.1006</text></g><g class="ytick"><text text-anchor="end" x="76.6" y="4.199999999999999" style="font-family: 'Open Sans', verdana, arial, sans-serif; font-size: 12px; fill: rgb(42, 63, 95); fill-opacity: 1; white-space: pre; opacity: 1;" transform="translate(0,184.56)">0.1007</text></g><g class="ytick"><text text-anchor="end" x="76.6" y="4.199999999999999" style="font-family: 'Open Sans', verdana, arial, sans-serif; font-size: 12px; fill: rgb(42, 63, 95); fill-opacity: 1; white-space: pre; opacity: 1;" transform="translate(0,107.46)">0.1008</text></g></g><g class="overaxes-above"/></g></g><g class="polarlayer"/><g class="smithlayer"/><g class="ternarylayer"/><g class="geolayer"/><g class="funnelarealayer"/><g class="pielayer"/><g class="iciclelayer"/><g class="treemaplayer"/><g class="sunburstlayer"/><g class="glimages"/><defs id="topdefs-b2f47d"><g class="clips"/></defs><g class="layer-above"><g class="imagelayer"/><g class="shapelayer"/></g><g class="infolayer"><g class="g-gtitle"><text class="gtitle" x="30" y="50" text-anchor="start" dy="0em" style="font-family: 'Open Sans', verdana, arial, sans-serif; font-size: 17px; fill: rgb(42, 63, 95); opacity: 1; white-space: pre;">Raw SGP30 Sensor Data, recovery 2</text></g><g class="g-xtitle"><text class="xtitle" x="300" y="562.70625" text-anchor="middle" style="font-family: 'Open Sans', verdana, arial, sans-serif; font-size: 14px; fill: rgb(42, 63, 95); opacity: 1; white-space: pre;">Time (min)</text></g><g class="g-ytitle"><text class="ytitle" transform="rotate(-90,20.490625,310)" x="20.490625" y="310" text-anchor="middle" style="font-family: 'Open Sans', verdana, arial, sans-serif; font-size: 14px; fill: rgb(42, 63, 95); opacity: 1; white-space: pre;">1/log[Raw Value]</text></g></g></svg>