<svg class="main-svg" xmlns="http://www.w3.org/2000/svg" xmlns:xlink="http://www.w3.org/1999/xlink" width="600" height="600" style="" viewBox="0 0 600 600"><rect x="0" y="0" width="600" height="600" style="fill: rgb(255, 255, 255); fill-opacity: 1;"/><defs id="defs-f794c8"><g class="clips"><clipPath id="clipf794c8xyplot" class="plotclip"><rect width="440" height="420"/></clipPath><clipPath class="axesclip" id="clipf794c8x"><rect x="80" y="0" width="440" height="600"/></clipPath><clipPath class="axesclip" id="clipf794c8y"><rect x="0" y="100" width="600" height="420"/></clipPath><clipPath class="axesclip" id="clipf794c8xy"><rect x="80" y="100" width="440" height="420"/></clipPath></g><g class="gradients"/><g class="patterns"/></defs><g class="bglayer"><rect class="bg" x="80" y="100" width="440" height="420" style="fill: rgb(0, 0, 0); fill-opacity: 0; stroke-width: 0;"/></g><g class="layer-below"><g class="imagelayer"/><g class="shapelayer"/></g><g class="cartesianlayer"><g class="subplot xy"><g class="layer-subplot"><g class="shapelayer"/><g class="imagelayer"/></g><g class="minor-gridlayer"><g class="x"/><g class="y"/></g><g class="gridlayer"><g class="x"><path class="xgrid crisp" transform="translate(214.28,0)" d="M0,100v420" style="stroke: rgb(255, 255, 255); stroke-opacity: 1; stroke-width: 1px;"/><path class="xgrid crisp" transform="translate(348.57,0)" d="M0,100v420" style="stroke: rgb(255, 255, 255); stroke-opacity: 1; stroke-width: 1px;"/><path class="xgrid crisp" transform="translate(482.85,0)" d="M0,100v420" style="stroke: rgb(255, 255, 255); stroke-opacity: 1; stroke-width: 1px;"/></g><g class="y"><path class="ygrid crisp" transform="translate(0,468.63)" d="M80,0h440" style="stroke: rgb(255, 255, 255); stroke-opacity: 1; stroke-width: 1px;"/><path class="ygrid crisp" transform="translate(0,413.11)" d="M80,0h440" style="stroke: rgb(255, 255, 255); stroke-opacity: 1; stroke-width: 1px;"/><path class="ygrid crisp" transform="translate(0,357.6)" d="M80,0h440" style="stroke: rgb(255, 255, 255); stroke-opacity: 1; stroke-width: 1px;"/><path class="ygrid crisp" transform="translate(0,302.08000000000004)" d="M80,0h440" style="stroke: rgb(255, 255, 255); stroke-opacity: 1; stroke-width: 1px;"/><path class="ygrid crisp" transform="translate(0,246.57)" d="M80,0h440" style="stroke: rgb(255, 255, 255); stroke-opacity: 1; stroke-width: 1px;"/><path class="ygrid crisp" transform="translate(0,191.05)" d="M80,0h440" style="stroke: rgb(255, 255, 255); stroke-opacity: 1; stroke-width: 1px;"/><path class="ygrid crisp" transform="translate(0,135.54)" d="M80,0h440" style="stroke: rgb(255, 255, 255); stroke-opacity: 1; stroke-width: 1px;"/></g></g><g class="zerolinelayer"/><g class="layer-between"><g class="shapelayer"/><g class="imagelayer"/></g><path class="xlines-below"/><path class="ylines-below"/><g class="overlines-below"/><g class="xaxislayer-below"/><g class="yaxislayer-below"/><g class="overaxes-below"/><g class="plot" transform="translate(80,100)" clip-path="url(#clipf794c8xyplot)"><g class="scatterlayer mlayer"><g class="trace scatter trace07898f" style="stroke-miterlimit: 2; opacity: 1;"><g class="fills"/><g class="errorbars"/><g class="lines"><path class="js-line" d="M5.82,47.56L7.61,72.64L8.5,80.31L9.85,90.99L10.3,92.97L11.64,88.46L12.09,83.18L13.43,69.22L13.88,62.84L16.11,40.48L16.56,34.14L18.35,21L19.25,21.22L19.69,21.22L20.59,23.74L23.72,67.75L24.17,81.3L28.65,147.82L29.09,152.39L31.33,161.09L31.78,164.62L33.57,170.06L34.47,170.66L34.91,172.22L35.81,172.64L36.26,173.9L37.15,174.08L37.6,172.88L38.05,168.7L40.73,151.18L41.18,145.11L42.52,136.37L43.42,132.14L44.76,128.07L45.21,128.36L47.89,133.26L48.34,135.56L51.03,149.31L51.48,154.67L55.95,193.19L56.4,198.2L58.64,207.2L59.08,210.8L60.43,216.22L60.87,218.9L64.9,228.36L65.35,228.3L66.69,229.37L67.59,229.18L70.72,224.64L71.17,223.76L75.65,217.57L76.09,217.26L78.33,213.9L78.78,212.16L80.12,208L80.57,206.26L82.81,199.08L83.26,197.22L85.05,193.31L85.94,192.75L86.39,193.12L87.28,192.69L90.42,196.39L90.86,197.92L94.89,208L95.34,210.13L97.13,217.32L98.03,219.77L100.26,229.09L101.16,231.25L103.4,239.85L104.29,241.57L106.53,249.03L107.43,250.51L109.22,253.94L110.11,255.36L111.01,257.63L111.9,257.63L112.35,258.8L113.25,258.8L117.72,258.99L118.17,259.65L118.62,259.78L119.51,260.96L121.75,265.4L122.64,266.18L128.46,274.74L128.91,276.06L130.7,279.89L131.6,280.49L134.73,283.87L135.18,283.8L138.31,285.07L139.21,284.93L144.13,283.67L145.03,284.2L147.26,284.73L148.16,284.87L149.95,285.93L150.4,286.33L153.53,286.53L154.43,287L156.22,288.81L156.66,289.41L158.01,291.43L158.9,293.11L160.69,296.8L161.14,297.6L164.27,299.69L165.17,299.15L166.96,298.27L167.85,297.87L169.64,297.13L170.09,297.26L172.78,299.03L173.22,300.45L177.7,307.08L178.6,308.23L180.39,310.54L180.83,311.49L182.18,312.86L183.07,313.68L185.31,317.38L186.21,318.07L187.55,319.43L188,319.37L192.47,318.83L192.92,318.97L195.16,321.86L195.61,323.51L197.4,326.47L198.29,327.03L199.19,329.45L200.08,329.45L201.87,331.05L202.77,331.32L204.56,332.02L205.01,332.3L206.35,332.71L207.24,332.78L207.69,332.23L208.14,332.64L209.03,333.2L210.38,333.2L210.82,333.33L212.61,332.64L213.51,332.85L215.3,332.92L215.75,333.34L217.09,334.03L217.99,334.88L219.78,336.27L220.22,337.88L223.36,339.62L224.25,339.34L224.7,340.18L225.6,340.25L226.04,340.81L226.49,340.1L227.83,340.8L228.73,341.15L230.07,341.58L230.52,342.92L232.31,344.75L233.2,345.95L235.44,349.68L236.34,350.8L238.13,351.72L238.58,352.35L245.74,351.93L246.19,352.21L250.66,352.22L251.56,351.51L252.9,350.66L253.35,351.01L254.69,351.37L255.14,351.58L257.82,350.96L258.27,349.57L262.3,340.98L262.75,340.69L264.09,341.47L264.98,343.3L267.22,349.55L268.12,350.81L269.01,352.22L269.91,353L271.25,354.27L271.7,355.05L274.38,357.9L274.83,358.47L276.62,360.11L277.52,360.46L279.31,361.25L280.2,361.17L285.57,360.1L286.47,360.03L288.26,361.61L288.71,362.4L290.95,365.54L291.39,366.4L293.18,368.26L294.08,368.19L296.32,367.76L297.21,367.97L297.66,367.61L298.56,368.34L301.69,369.27L302.14,368.91L306.16,370.71L306.61,371.36L307.96,373.17L308.4,374.17L311.54,375.03L312.43,374.46L316.01,371.71L316.91,372.29L318.7,372.57L319.15,372.65L321.38,374.24L321.83,375.4L323.62,375.83L324.52,376.7L325.86,378.88L326.31,379.16L330.34,381.26L330.78,380.9L332.57,380.39L333.47,380.47L335.71,378.8L336.6,379.01L340.18,377.49L341.08,377.49L341.97,376.91L342.87,377.06L344.21,377.49L344.66,377.86L347.34,379.24L347.79,379.74L349.14,380.76L350.03,380.76L350.93,381.63L351.82,381.63L353.16,383.46L353.61,383.82L354.06,384.69L354.95,384.77L358.54,388.27L359.43,388.19L361.67,388.27L362.56,387.82L363.01,388.19L363.91,387.83L367.04,387.46L367.49,387.68L368.83,388.26L369.28,387.75L371.52,387.75L371.96,388.04L374.65,387.75L375.1,387.53L376.89,388.99L377.78,389.58L380.47,391.05L380.92,391.78L382.26,392.89L382.71,392.89L387.18,395.31L388.08,395.24L389.87,395.68L390.32,395.46L393,394.5L393.45,394.65L402.4,392.81L403.3,391.78L404.19,390.68L405.09,390.31L406.43,390.32L406.88,390.91L408.67,392.31L409.56,393.19L410.91,394.35L411.35,394.72L414.04,393.84L414.49,394.14L416.28,393.77L417.17,394.14L419.41,395.97L420.31,396.42L422.1,398.12L422.99,397.9L423.89,398.41L424.78,398.63L426.12,398.85L426.57,398.19L427.91,396.35L428.36,396.35L429.26,396.35L429.7,395.31L430.6,394.8L431.05,395.46L432.84,395.17L433.73,395.54L437.31,396.93L438.21,396.78L439.1,397.45L440,397.37" style="vector-effect: none; fill: none; stroke: rgb(99, 110, 250); stroke-opacity: 1; stroke-width: 2px; opacity: 1;"/></g><g class="points"/><g class="text"/></g></g></g><g class="overplot"/><path class="xlines-above crisp" d="M79,520.5H521M79,99.5H521" style="fill: none; stroke-width: 1px; stroke: rgb(0, 0, 0); stroke-opacity: 1;"/><path class="ylines-above crisp" d="M79.5,100V520M520.5,100V520" style="fill: none; stroke-width: 1px; stroke: rgb(0, 0, 0); stroke-opacity: 1;"/><g class="overlines-above"/><g class="xaxislayer-above"><g class="xtick"><text text-anchor="middle" x="0" y="535.4" transform="translate(80,0)" style="font-family: 'Open Sans', verdana, arial, sans-serif; font-size: 12px; fill: rgb(42, 63, 95); fill-opacity: 1; white-space: pre; opacity: 1;">0</text></g><g class="xtick"><text text-anchor="middle" x="0" y="535.4" style="font-family: 'Open Sans', verdana, arial, sans-serif; font-size: 12px; fill: rgb(42, 63, 95); fill-opacity: 1; white-space: pre; opacity: 1;" transform="translate(214.28,0)">5</text></g><g class="xtick"><text text-anchor="middle" x="0" y="535.4" style="font-family: 'Open Sans', verdana, arial, sans-serif; font-size: 12px; fill: rgb(42, 63, 95); fill-opacity: 1; white-space: pre; opacity: 1;" transform="translate(348.57,0)">10</text></g><g class="xtick"><text text-anchor="middle" x="0" y="535.4" style="font-family: 'Open Sans', verdana, arial, sans-serif; font-size: 12px; fill: rgb(42, 63, 95); fill-opacity: 1; white-space: pre; opacity: 1;" transform="translate(482.85,0)">15</text></g></g><g class="yaxislayer-above"><g class="ytick"><text text-anchor="end" x="76.6" y="4.199999999999999" transform="translate(0,468.63)" style="font-family: 'Open Sans', verdana, arial, sans-serif; font-size: 12px; fill: rgb(42, 63, 95); fill-opacity: 1; white-space: pre; opacity: 1;">0.09</text></g><g class="ytick"><text text-anchor="end" x="76.6" y="4.199999999999999" style="font-family: 'Open Sans', verdana, arial, sans-serif; font-size: 12px; fill: rgb(42, 63, 95); fill-opacity: 1; white-space: pre; opacity: 1;" transform="translate(0,413.11)">0.0905</text></g><g class="ytick"><text text-anchor="end" x="76.6" y="4.199999999999999" style="font-family: 'Open Sans', verdana, arial, sans-serif; font-size: 12px; fill: rgb(42, 63, 95); fill-opacity: 1; white-space: pre; opacity: 1;" transform="translate(0,357.6)">0.091</text></g><g class="ytick"><text text-anchor="end" x="76.6" y="4.199999999999999" style="font-family: 'Open Sans', verdana, arial, sans-serif; font-size: 12px; fill: rgb(42, 63, 95); fill-opacity: 1; white-space: pre; opacity: 1;" transform="translate(0,302.08000000000004)">0.0915</text></g><g class="ytick"><text text-anchor="end" x="76.6" y="4.199999999999999" style="font-family: 'Open Sans', verdana, arial, sans-serif; font-size: 12px; fill: rgb(42, 63, 95); fill-opacity: 1; white-space: pre; opacity: 1;" transform="translate(0,246.57)">0.092</text></g><g class="ytick"><text text-anchor="end" x="76.6" y="4.199999999999999" style="font-family: 'Open Sans', verdana, arial, sans-serif; font-size: 12px; fill: rgb(42, 63, 95); fill-opacity: 1; white-space: pre; opacity: 1;" transform="translate(0,191.05)">0.0925</text></g><g class="ytick"><text text-anchor="end" x="76.6" y="4.199999999999999" style="font-family: 'Open Sans', verdana, arial, sans-serif; font-size: 12px; fill: rgb(42, 63, 95); fill-opacity: 1; white-space: pre; opacity: 1;" transform="translate(0,135.54)">0.093</text></g></g><g class="overaxes-above"/></g></g><g class="polarlayer"/><g class="smithlayer"/><g class="ternarylayer"/><g class="geolayer"/><g class="funnelarealayer"/><g class="pielayer"/><g class="iciclelayer"/><g class="treemaplayer"/><g class="sunburstlayer"/><g class="glimages"/><defs id="topdefs-f794c8"><g class="clips"/></defs><g class="layer-above"><g class="imagelayer"/><g class="shapelayer"/></g><g class="infolayer"><g class="g-gtitle"><text class="gtitle" x="30" y="50" text-anchor="start" dy="0em" style="font-family: 'Open Sans', verdana, arial, sans-serif; font-size: 17px; fill: rgb(42, 63, 95); opacity: 1; white-space: pre;">Raw BME680 Sensor Data, recovery 2</text></g><g class="g-xtitle"><text class="xtitle" x="300" y="562.70625" text-anchor="middle" style="font-family: 'Open Sans', verdana, arial, sans-serif; font-size: 14px; fill: rgb(42, 63, 95); opacity: 1; white-space: pre;">Time (min)</text></g><g class="g-ytitle"><text class="ytitle" transform="rotate(-90,20.490625,310)" x="20.490625" y="310" text-anchor="middle" style="font-family: 'Open Sans', verdana, arial, sans-serif; font-size: 14px; fill: rgb(42, 63, 95); opacity: 1; white-space: pre;">1/log[Raw Value]</text></g></g></svg>