<svg class="main-svg" xmlns="http://www.w3.org/2000/svg" xmlns:xlink="http://www.w3.org/1999/xlink" width="600" height="600" style="" viewBox="0 0 600 600"><rect x="0" y="0" width="600" height="600" style="fill: rgb(255, 255, 255); fill-opacity: 1;"/><defs id="defs-d806ec"><g class="clips"><clipPath id="clipd806ecxyplot" class="plotclip"><rect width="440" height="420"/></clipPath><clipPath class="axesclip" id="clipd806ecx"><rect x="80" y="0" width="440" height="600"/></clipPath><clipPath class="axesclip" id="clipd806ecy"><rect x="0" y="100" width="600" height="420"/></clipPath><clipPath class="axesclip" id="clipd806ecxy"><rect x="80" y="100" width="440" height="420"/></clipPath></g><g class="gradients"/><g class="patterns"/></defs><g class="bglayer"><rect class="bg" x="80" y="100" width="440" height="420" style="fill: rgb(0, 0, 0); fill-opacity: 0; stroke-width: 0;"/></g><g class="layer-below"><g class="imagelayer"/><g class="shapelayer"/></g><g class="cartesianlayer"><g class="subplot xy"><g class="layer-subplot"><g class="shapelayer"/><g class="imagelayer"/></g><g class="minor-gridlayer"><g class="x"/><g class="y"/></g><g class="gridlayer"><g class="x"><path class="xgrid crisp" transform="translate(168.29000000000002,0)" d="M0,100v420" style="stroke: rgb(255, 255, 255); stroke-opacity: 1; stroke-width: 1px;"/><path class="xgrid crisp" transform="translate(256.59000000000003,0)" d="M0,100v420" style="stroke: rgb(255, 255, 255); stroke-opacity: 1; stroke-width: 1px;"/><path class="xgrid crisp" transform="translate(344.88,0)" d="M0,100v420" style="stroke: rgb(255, 255, 255); stroke-opacity: 1; stroke-width: 1px;"/><path class="xgrid crisp" transform="translate(433.18,0)" d="M0,100v420" style="stroke: rgb(255, 255, 255); stroke-opacity: 1; stroke-width: 1px;"/></g><g class="y"><path class="ygrid crisp" transform="translate(0,478.65)" d="M80,0h440" style="stroke: rgb(255, 255, 255); stroke-opacity: 1; stroke-width: 1px;"/><path class="ygrid crisp" transform="translate(0,376.51)" d="M80,0h440" style="stroke: rgb(255, 255, 255); stroke-opacity: 1; stroke-width: 1px;"/><path class="ygrid crisp" transform="translate(0,274.38)" d="M80,0h440" style="stroke: rgb(255, 255, 255); stroke-opacity: 1; stroke-width: 1px;"/><path class="ygrid crisp" transform="translate(0,172.25)" d="M80,0h440" style="stroke: rgb(255, 255, 255); stroke-opacity: 1; stroke-width: 1px;"/></g></g><g class="zerolinelayer"/><g class="layer-between"><g class="shapelayer"/><g class="imagelayer"/></g><path class="xlines-below"/><path class="ylines-below"/><g class="overlines-below"/><g class="xaxislayer-below"/><g class="yaxislayer-below"/><g class="overaxes-below"/><g class="plot" transform="translate(80,100)" clip-path="url(#clipd806ecxyplot)"><g class="scatterlayer mlayer"><g class="trace scatter trace6addb2" style="stroke-miterlimit: 2; opacity: 1;"><g class="fills"/><g class="errorbars"/><g class="lines"><path class="js-line" d="M8.83,21L10.3,61.63L11.04,102.83L12.51,146.68L13.24,191.37L13.98,233.65L15.45,270.54L16.19,299.32L17.66,320.76L18.39,334.61L19.87,344.52L21.34,357.6L22.81,361.04L23.55,361.42L25.02,363.68L25.75,362.93L26.49,363.43L27.96,362.93L28.7,364.3L30.9,365.66L32.37,364.79L33.85,364.91L35.32,363.16L36.05,363.28L37.53,362.04L41.2,355.83L42.68,354.83L43.41,352.47L44.88,350.48L46.35,349.23L47.83,349.73L50.77,353.6L51.51,354.34L52.98,355.09L53.71,356.57L57.39,362.05L58.13,364.56L58.86,367.73L60.33,370.51L64.01,386.19L65.48,389.33L66.22,391.45L67.69,392.69L68.43,393.45L69.9,393.57L71.37,393.32L72.84,392.69L75.79,386.51L76.52,386L80.94,388.55L82.41,391.12L83.88,398.13L85.35,399L87.56,386.85L88.29,376.98L90.5,357.48L91.24,348.73L95.65,322.83L96.39,325.72L97.86,329.77L98.6,334.72L102.27,344.82L103.01,345.55L108.16,336.63L108.9,336.01L113.31,337.12L114.78,338.47L116.25,337.74L117.73,337.62L119.93,337.74L120.67,339.11L122.88,341.1L123.61,343.47L125.08,344.84L125.82,348.2L127.29,351.29L128.03,355.13L130.23,362.19L130.97,364.43L132.44,366.3L133.18,369.04L136.12,371.65L137.59,372.4L139.8,372.28L140.54,371.4L143.48,370.02L144.95,369.77L146.42,371.16L147.89,372.05L148.63,371.92L150.1,373.18L155.25,378.31L155.99,377.3L160.4,380.45L161.14,380.07L163.34,380.71L164.82,380.08L166.29,376.97L167.76,375.08L169.97,371.82L170.7,369.81L172.17,368.94L172.91,365.8L175.12,360.69L175.85,360.07L177.32,359.32L178.06,357.95L178.8,354.83L180.27,353.34L181,351.6L182.47,350.23L185.42,348.62L186.15,346.63L188.36,344.28L189.83,344.65L191.3,345.14L192.78,346.02L193.51,344.9L194.98,345.89L195.72,347.01L197.19,347.63L197.93,348L198.66,347.02L200.13,346.03L200.87,344.32L202.34,341.62L203.08,338.05L208.23,319.77L209.7,317.19L211.17,312.28L212.64,311.55L213.38,311.06L214.85,311.18L217.06,314.38L217.79,317.85L218.53,322.52L220,326.58L220.74,331.12L222.21,334.92L225.15,349.82L225.89,353.99L231.04,364.79L232.51,366.77L233.24,367.9L234.72,368.15L235.45,367.66L236.19,368.41L237.66,368.28L238.39,367.41L240.6,365.92L242.07,363.81L245.75,356.95L247.22,354.95L250.17,349.49L250.9,348.24L252.37,347.5L253.11,345.77L259.73,340.45L260.47,341.07L261.2,340.45L262.68,340.57L263.41,341.31L264.88,340.33L265.62,338.62L267.09,337.52L268.56,334.33L270.03,333.96L270.77,332.84L272.24,332.97L273.71,333.22L275.18,335.2L275.92,337.29L277.39,338.39L278.13,339.61L279.6,339.85L282.54,335.21L283.28,332.03L284.75,329.21L285.48,325.52L286.22,321.47L287.69,319.13L288.43,316.8L289.9,315.44L292.11,314.59L292.84,315.08L295.79,319L297.26,321.68L300.2,329.8L300.94,334.51L302.41,338.98L303.14,343.83L305.35,353.13L306.09,356.95L310.5,370.65L311.97,370.9L312.71,370.78L313.44,369.04L317.12,363.08L317.86,358.5L324.48,326.56L325.22,321.4L325.95,315.4L327.42,309.86L328.16,306.18L329.63,302.74L331.1,300.65L332.58,301.87L335.52,311.55L336.99,316.93L340.67,342.01L342.14,348.35L343.61,361.56L345.08,368.27L345.82,374.72L347.29,380.09L348.03,383.94L349.5,386.43L350.97,390.54L352.44,389.06L356.12,378.27L357.59,375.49L358.33,372.97L359.8,371.45L360.54,370.05L362.01,370.43L367.89,380.72L369.36,382.84L370.84,385.61L372.31,386.37L373.04,388.01L374.52,387.88L377.46,390.54L378.19,391.67L381.87,392.43L382.61,392.55L383.34,392.3L384.82,392.8L385.55,393.18L387.02,392.55L389.97,392.68L390.7,392.68L392.91,393.19L394.38,393.96L395.85,394.09L397.32,395.86L399.53,394.47L400.27,395.36L402.47,396.11L403.21,395.35L405.42,396.5L406.89,397.64L407.63,396.88L408.36,397.51L409.83,397.51L410.57,396.75L412.78,396.75L413.51,397.51L420.13,393.2L420.87,393.45L424.55,390.41L425.28,389.4L426.76,386.14L427.49,381.93L431.91,329.56L432.64,310.57L435.59,247.26L437.06,227.76L437.79,209.92L439.26,196.47L440,186.98" style="vector-effect: none; fill: none; stroke: rgb(99, 110, 250); stroke-opacity: 1; stroke-width: 2px; opacity: 1;"/></g><g class="points"/><g class="text"/></g></g></g><g class="overplot"/><path class="xlines-above crisp" d="M79,520.5H521M79,99.5H521" style="fill: none; stroke-width: 1px; stroke: rgb(0, 0, 0); stroke-opacity: 1;"/><path class="ylines-above crisp" d="M79.5,100V520M520.5,100V520" style="fill: none; stroke-width: 1px; stroke: rgb(0, 0, 0); stroke-opacity: 1;"/><g class="overlines-above"/><g class="xaxislayer-above"><g class="xtick"><text text-anchor="middle" x="0" y="535.4" transform="translate(80,0)" style="font-family: 'Open Sans', verdana, arial, sans-serif; font-size: 12px; fill: rgb(42, 63, 95); fill-opacity: 1; white-space: pre; opacity: 1;">0</text></g><g class="xtick"><text text-anchor="middle" x="0" y="535.4" style="font-family: 'Open Sans', verdana, arial, sans-serif; font-size: 12px; fill: rgb(42, 63, 95); fill-opacity: 1; white-space: pre; opacity: 1;" transform="translate(168.29000000000002,0)">2</text></g><g class="xtick"><text text-anchor="middle" x="0" y="535.4" style="font-family: 'Open Sans', verdana, arial, sans-serif; font-size: 12px; fill: rgb(42, 63, 95); fill-opacity: 1; white-space: pre; opacity: 1;" transform="translate(256.59000000000003,0)">4</text></g><g class="xtick"><text text-anchor="middle" x="0" y="535.4" style="font-family: 'Open Sans', verdana, arial, sans-serif; font-size: 12px; fill: rgb(42, 63, 95); fill-opacity: 1; white-space: pre; opacity: 1;" transform="translate(344.88,0)">6</text></g><g class="xtick"><text text-anchor="middle" x="0" y="535.4" style="font-family: 'Open Sans', verdana, arial, sans-serif; font-size: 12px; fill: rgb(42, 63, 95); fill-opacity: 1; white-space: pre; opacity: 1;" transform="translate(433.18,0)">8</text></g></g><g class="yaxislayer-above"><g class="ytick"><text text-anchor="end" x="76.6" y="4.199999999999999" transform="translate(0,478.65)" style="font-family: 'Open Sans', verdana, arial, sans-serif; font-size: 12px; fill: rgb(42, 63, 95); fill-opacity: 1; white-space: pre; opacity: 1;">0.0905</text></g><g class="ytick"><text text-anchor="end" x="76.6" y="4.199999999999999" style="font-family: 'Open Sans', verdana, arial, sans-serif; font-size: 12px; fill: rgb(42, 63, 95); fill-opacity: 1; white-space: pre; opacity: 1;" transform="translate(0,376.51)">0.091</text></g><g class="ytick"><text text-anchor="end" x="76.6" y="4.199999999999999" style="font-family: 'Open Sans', verdana, arial, sans-serif; font-size: 12px; fill: rgb(42, 63, 95); fill-opacity: 1; white-space: pre; opacity: 1;" transform="translate(0,274.38)">0.0915</text></g><g class="ytick"><text text-anchor="end" x="76.6" y="4.199999999999999" style="font-family: 'Open Sans', verdana, arial, sans-serif; font-size: 12px; fill: rgb(42, 63, 95); fill-opacity: 1; white-space: pre; opacity: 1;" transform="translate(0,172.25)">0.092</text></g></g><g class="overaxes-above"/></g></g><g class="polarlayer"/><g class="smithlayer"/><g class="ternarylayer"/><g class="geolayer"/><g class="funnelarealayer"/><g class="pielayer"/><g class="iciclelayer"/><g class="treemaplayer"/><g class="sunburstlayer"/><g class="glimages"/><defs id="topdefs-d806ec"><g class="clips"/></defs><g class="layer-above"><g class="imagelayer"/><g class="shapelayer"/></g><g class="infolayer"><g class="g-gtitle"><text class="gtitle" x="30" y="50" text-anchor="start" dy="0em" style="font-family: 'Open Sans', verdana, arial, sans-serif; font-size: 17px; fill: rgb(42, 63, 95); opacity: 1; white-space: pre;">Raw BME680 Sensor Data, recovery 1</text></g><g class="g-xtitle"><text class="xtitle" x="300" y="562.70625" text-anchor="middle" style="font-family: 'Open Sans', verdana, arial, sans-serif; font-size: 14px; fill: rgb(42, 63, 95); opacity: 1; white-space: pre;">Time (min)</text></g><g class="g-ytitle"><text class="ytitle" transform="rotate(-90,20.490625,310)" x="20.490625" y="310" text-anchor="middle" style="font-family: 'Open Sans', verdana, arial, sans-serif; font-size: 14px; fill: rgb(42, 63, 95); opacity: 1; white-space: pre;">1/log[Raw Value]</text></g></g></svg>